<svg width="383" height="383" viewBox="0 0 383 383" fill="none" xmlns="http://www.w3.org/2000/svg">
<mask id="path-1-outside-1_956_52690" maskUnits="userSpaceOnUse" x="25" y="12" width="352" height="342" fill="black">
<rect fill="white" x="25" y="12" width="352" height="342"/>
<path fill-rule="evenodd" clip-rule="evenodd" d="M210.874 324.469C212.085 295.643 208.45 279.874 189.103 268.48C156.347 249.19 115.19 273.675 120.119 312.489C120.603 316.303 118.859 320.115 119.629 324.225L74.375 324.225C68.3905 324.225 59.2786 325.304 55.2938 323.003C53.4325 317.555 54.5604 307.993 54.5604 301.242L54.5604 271.413C54.5604 265.989 54.1629 259.706 55.049 255.033C55.9463 253.796 56.7402 253.29 58.9631 253.321C65.7793 256.078 71.4544 259.159 80.2457 260.656C109.581 265.649 136.99 237.054 130.148 208.09C128.958 202.695 126.979 197.505 124.278 192.686C117.293 180.906 105.247 175.329 89.0523 172.638C77.5167 170.722 67.7042 175.611 61.1645 179.24C59.2407 180.309 56.1031 180.521 55.049 178.505C53.0197 174.626 54.5593 165.163 54.5604 160.169L54.8052 111.27L56.7617 109.558C80.0794 109.314 103.401 109.07 126.727 108.825C135.204 104.182 128.371 93.6511 126.727 87.0647C125.652 82.1596 125.568 77.0887 126.482 72.151C129.839 56.8292 140.044 46.6717 154.369 42.3224C168.04 38.1721 188.891 44.4642 194.73 51.8576C199.912 58.4194 202.871 66.109 204.514 76.3075C206.691 89.8186 192.757 101.222 204.025 109.069C220.005 108.989 235.987 108.907 251.971 108.825C258.852 108.825 267.475 107.977 273.498 109.314C277.698 115.364 275.212 151.005 275.21 161.881C275.21 167.819 274.472 175.188 276.923 178.751C283.968 188.991 299.185 175.275 313.127 178.017C333.256 181.975 354.455 200.369 346.151 227.649C344.419 233.009 341.679 237.989 338.079 242.319C331.743 250.247 321.631 254.062 308.969 255.767C296.992 257.378 284.647 244.181 277.168 254.299C274.621 257.745 275.209 264.421 275.21 270.435L275.455 306.132C275.455 311.771 276.844 322.036 273.009 323.98C269.321 325.943 259.978 324.469 255.152 324.469L210.875 324.469L210.874 324.469Z"/>
</mask>
<path fill-rule="evenodd" clip-rule="evenodd" d="M210.874 324.469C212.085 295.643 208.45 279.874 189.103 268.48C156.347 249.19 115.19 273.675 120.119 312.489C120.603 316.303 118.859 320.115 119.629 324.225L74.375 324.225C68.3905 324.225 59.2786 325.304 55.2938 323.003C53.4325 317.555 54.5604 307.993 54.5604 301.242L54.5604 271.413C54.5604 265.989 54.1629 259.706 55.049 255.033C55.9463 253.796 56.7402 253.29 58.9631 253.321C65.7793 256.078 71.4544 259.159 80.2457 260.656C109.581 265.649 136.99 237.054 130.148 208.09C128.958 202.695 126.979 197.505 124.278 192.686C117.293 180.906 105.247 175.329 89.0523 172.638C77.5167 170.722 67.7042 175.611 61.1645 179.24C59.2407 180.309 56.1031 180.521 55.049 178.505C53.0197 174.626 54.5593 165.163 54.5604 160.169L54.8052 111.27L56.7617 109.558C80.0794 109.314 103.401 109.07 126.727 108.825C135.204 104.182 128.371 93.6511 126.727 87.0647C125.652 82.1596 125.568 77.0887 126.482 72.151C129.839 56.8292 140.044 46.6717 154.369 42.3224C168.04 38.1721 188.891 44.4642 194.73 51.8576C199.912 58.4194 202.871 66.109 204.514 76.3075C206.691 89.8186 192.757 101.222 204.025 109.069C220.005 108.989 235.987 108.907 251.971 108.825C258.852 108.825 267.475 107.977 273.498 109.314C277.698 115.364 275.212 151.005 275.21 161.881C275.21 167.819 274.472 175.188 276.923 178.751C283.968 188.991 299.185 175.275 313.127 178.017C333.256 181.975 354.455 200.369 346.151 227.649C344.419 233.009 341.679 237.989 338.079 242.319C331.743 250.247 321.631 254.062 308.969 255.767C296.992 257.378 284.647 244.181 277.168 254.299C274.621 257.745 275.209 264.421 275.21 270.435L275.455 306.132C275.455 311.771 276.844 322.036 273.009 323.98C269.321 325.943 259.978 324.469 255.152 324.469L210.875 324.469L210.874 324.469Z" stroke="#922EB0" stroke-width="56" stroke-linejoin="round" mask="url(#path-1-outside-1_956_52690)"/>
</svg>
