<svg width="676" height="659" viewBox="0 0 676 659" fill="none" xmlns="http://www.w3.org/2000/svg">
<g clip-path="url(#clip0_447_37603)">
<path d="M299.341 340.744L324.817 385.581L350.291 430.419H248.393L273.867 385.581L299.341 340.744Z" fill="#9C27B0"/>
<path d="M154.582 252.679H47.7461V361.244H154.582V252.679Z" fill="#E6E6E6"/>
<path d="M231.165 183.504C269.021 183.504 299.71 152.319 299.71 113.85C299.71 75.3803 269.021 44.1948 231.165 44.1948C193.308 44.1948 162.619 75.3803 162.619 113.85C162.619 152.319 193.308 183.504 231.165 183.504Z" fill="#9C27B0"/>
<path d="M292.855 230.155C292.855 227.875 293.521 225.646 294.767 223.75C296.014 221.854 297.786 220.376 299.859 219.504C301.932 218.631 304.213 218.403 306.414 218.848C308.615 219.292 310.637 220.39 312.223 222.003C313.81 223.615 314.891 225.669 315.328 227.906C315.766 230.142 315.541 232.46 314.683 234.567C313.824 236.674 312.37 238.474 310.504 239.741C308.638 241.008 306.445 241.684 304.201 241.684C301.192 241.684 298.306 240.469 296.178 238.307C294.051 236.145 292.855 233.213 292.855 230.155ZM294.746 230.155C294.746 232.055 295.301 233.913 296.34 235.493C297.379 237.073 298.855 238.304 300.583 239.031C302.31 239.758 304.211 239.949 306.045 239.578C307.879 239.207 309.564 238.292 310.886 236.949C312.209 235.605 313.109 233.893 313.474 232.029C313.839 230.166 313.651 228.234 312.936 226.478C312.22 224.723 311.008 223.222 309.454 222.167C307.899 221.111 306.071 220.547 304.201 220.547C301.693 220.547 299.289 221.56 297.516 223.361C295.743 225.163 294.746 227.607 294.746 230.155Z" fill="#CCCCCC"/>
<path d="M195.175 430.7L178.475 412.505L196.38 395.535L213.08 413.729L195.175 430.7ZM181.137 412.6L195.268 427.995L210.418 413.635L196.287 398.24L181.137 412.6Z" fill="#CCCCCC"/>
<path d="M57.2481 171.867L43.6562 157.058L58.2323 143.249L71.8242 158.057L57.2481 171.867ZM45.8223 157.135L57.3275 169.669L69.6582 157.982L58.1567 145.452L45.8223 157.135Z" fill="#CCCCCC"/>
<path d="M248.182 192.151C229.483 192.151 211.203 186.516 195.656 175.96C180.108 165.403 167.99 150.398 160.834 132.842C153.678 115.287 151.805 95.969 155.453 77.3322C159.101 58.6954 168.106 41.5763 181.328 28.1399C194.551 14.7035 211.397 5.55321 229.737 1.84611C248.077 -1.86099 267.087 0.0416279 284.363 7.31336C301.639 14.5851 316.405 26.8993 326.794 42.6989C337.183 58.4984 342.728 77.0737 342.728 96.0756C342.728 121.556 332.767 145.994 315.036 164.011C297.305 182.029 273.257 192.151 248.182 192.151ZM248.182 1.92156C229.857 1.92156 211.943 7.44359 196.706 17.7894C181.469 28.1352 169.593 42.84 162.581 60.0444C155.568 77.2488 153.733 96.1801 157.308 114.444C160.883 132.708 169.708 149.485 182.666 162.653C195.624 175.82 212.133 184.788 230.106 188.421C248.079 192.053 266.709 190.189 283.64 183.063C300.57 175.936 315.041 163.868 325.222 148.385C335.403 132.901 340.837 114.698 340.837 96.0756C340.837 71.1044 331.075 47.156 313.699 29.4986C296.323 11.8413 272.756 1.92156 248.182 1.92156Z" fill="#3F3D56"/>
<path d="M189.98 170.827L165.557 222.479L167.261 223.312L191.685 171.659L189.98 170.827Z" fill="#3F3D56"/>
<path d="M184.341 291.222L183.441 292.912L291.023 352.077L291.923 350.387L184.341 291.222Z" fill="#3F3D56"/>
<path d="M184.837 362.205H46.8008V221.935H184.837V362.205ZM48.6917 360.283H182.946V223.856H48.6917V360.283Z" fill="#3F3D56"/>
<path d="M389.537 431.38H246.756L318.146 305.726L389.537 431.38ZM250.031 429.458H386.261L318.146 309.569L250.031 429.458Z" fill="#3F3D56"/>
<path d="M195.049 599.157C199.86 600.875 205.025 601.306 210.047 600.407C215.069 599.508 219.779 597.31 223.722 594.025C233.765 585.459 236.914 571.351 239.475 558.285L247.053 519.635L231.188 530.736C219.779 538.719 208.113 546.958 200.213 558.521C192.314 570.084 188.868 585.869 195.213 598.381" fill="#E6E6E6"/>
<path d="M197.499 648.64C195.502 633.857 193.447 618.882 194.851 603.941C196.096 590.671 200.08 577.712 208.191 567.082C212.496 561.452 217.735 556.627 223.672 552.826C225.219 551.834 226.644 554.326 225.103 555.315C214.831 561.912 206.885 571.653 202.412 583.134C197.472 595.902 196.679 609.82 197.53 623.383C198.044 631.585 199.137 639.733 200.235 647.872C200.321 648.24 200.267 648.628 200.083 648.957C199.899 649.286 199.599 649.532 199.244 649.645C198.881 649.744 198.495 649.694 198.168 649.505C197.842 649.317 197.601 649.005 197.5 648.638L197.499 648.64Z" fill="#F2F2F2"/>
<path d="M329.674 628.278C332.01 631.081 335.017 633.226 338.405 634.506C341.793 635.786 345.449 636.158 349.02 635.585C358.184 634.006 365.092 626.523 371.265 619.466L389.536 598.59L375.922 599.599C366.128 600.324 356.086 601.112 347.18 605.306C338.274 609.5 330.591 617.892 330.059 627.861" fill="#E6E6E6"/>
<path d="M313.995 657.389C317.21 649.534 320.444 641.571 325.372 634.635C329.748 628.475 335.384 623.269 342.39 620.416C346.104 618.909 350.049 618.072 354.046 617.942C355.086 617.907 355.086 619.55 354.046 619.585C347.124 619.82 340.455 622.282 334.999 626.617C328.948 631.447 324.61 638.058 321.181 644.976C319.107 649.159 317.332 653.485 315.565 657.809C315.503 658.015 315.366 658.19 315.183 658.297C314.999 658.405 314.782 658.438 314.575 658.39C314.369 658.332 314.193 658.195 314.086 658.006C313.979 657.818 313.949 657.594 314.003 657.384L313.995 657.389Z" fill="#F2F2F2"/>
<path d="M211.871 624.919C213.934 628.106 216.77 630.7 220.106 632.45C223.442 634.2 227.165 635.047 230.916 634.911C240.56 634.446 248.596 627.609 255.83 621.116L277.23 601.916L263.067 601.227C252.882 600.731 242.434 600.266 232.733 603.461C223.031 606.657 214.084 614.335 212.311 624.539" fill="#E6E6E6"/>
<path d="M191.855 657.138C201.468 639.853 212.618 620.643 232.542 614.502C238.082 612.801 243.89 612.192 249.655 612.707C251.472 612.866 251.018 615.712 249.205 615.553C239.542 614.738 229.897 617.331 221.894 622.895C214.194 628.222 208.198 635.627 203.123 643.48C200.015 648.29 197.23 653.304 194.446 658.312C193.556 659.912 190.954 658.757 191.855 657.138Z" fill="#F2F2F2"/>
<path d="M22.2024 626.522C25.6838 627.766 29.4217 628.077 33.056 627.427C36.6903 626.776 40.0985 625.186 42.9522 622.808C50.22 616.609 52.5013 606.397 54.3525 596.941L59.8362 568.971L48.3555 577.005C40.0989 582.782 31.6569 588.745 25.9397 597.113C20.2226 605.481 17.7275 616.904 22.3205 625.958" fill="#E6E6E6"/>
<path d="M23.1833 660.385C22.0213 651.784 20.8263 643.072 21.6413 634.379C22.3655 626.658 24.6828 619.117 29.4025 612.934C31.9075 609.658 34.9556 606.851 38.4098 604.639C39.3108 604.063 40.139 605.513 39.2428 606.087C33.2663 609.925 28.6437 615.593 26.0414 622.273C23.1672 629.702 22.7058 637.8 23.205 645.69C23.5047 650.463 24.1391 655.202 24.7792 659.938C24.8308 660.153 24.7997 660.379 24.6925 660.571C24.5853 660.763 24.41 660.906 24.2025 660.97C23.9914 661.028 23.7663 660.999 23.5762 660.889C23.3861 660.78 23.2462 660.598 23.1871 660.384L23.1833 660.385Z" fill="#F2F2F2"/>
<path d="M108.705 660.472C108.455 660.058 102.573 650.078 100.535 629.355C98.665 610.342 99.8676 578.296 116.222 533.594C147.207 448.909 109.082 380.58 108.692 379.9L110.573 378.792C110.668 378.964 120.51 396.385 126.32 424.126C133.999 460.904 131.203 499.144 118.26 534.365C87.328 618.906 110.324 658.926 110.56 659.321L108.705 660.472Z" fill="#3F3D56"/>
<path d="M141.153 427.945C148.957 427.945 155.283 421.516 155.283 413.586C155.283 405.656 148.957 399.228 141.153 399.228C133.35 399.228 127.023 405.656 127.023 413.586C127.023 421.516 133.35 427.945 141.153 427.945Z" fill="#9C27B0"/>
<path d="M99.8486 539.502C107.652 539.502 113.978 533.073 113.978 525.143C113.978 517.213 107.652 510.785 99.8486 510.785C92.0449 510.785 85.7188 517.213 85.7188 525.143C85.7188 533.073 92.0449 539.502 99.8486 539.502Z" fill="#9C27B0"/>
<path d="M115.925 660.041C115.925 660.041 103.868 629.882 140.039 607.263L115.925 660.041Z" fill="#E6E6E6"/>
<path d="M101.097 659.492C101.097 659.492 97.4188 637.996 68.9512 638.181L101.097 659.492Z" fill="#E6E6E6"/>
<path d="M134.018 484.571C134.018 482.29 134.683 480.061 135.93 478.165C137.176 476.269 138.948 474.792 141.021 473.919C143.094 473.046 145.376 472.818 147.576 473.263C149.777 473.708 151.799 474.806 153.385 476.418C154.972 478.031 156.053 480.085 156.49 482.321C156.928 484.558 156.704 486.876 155.845 488.983C154.986 491.089 153.532 492.89 151.666 494.157C149.8 495.423 147.607 496.1 145.363 496.1C142.354 496.1 139.468 494.885 137.341 492.723C135.213 490.561 134.018 487.628 134.018 484.571ZM135.908 484.571C135.908 486.471 136.463 488.328 137.502 489.908C138.541 491.488 140.017 492.72 141.745 493.447C143.473 494.174 145.374 494.364 147.208 493.994C149.042 493.623 150.726 492.708 152.048 491.364C153.371 490.021 154.271 488.309 154.636 486.445C155.001 484.581 154.813 482.65 154.098 480.894C153.382 479.138 152.17 477.638 150.616 476.582C149.061 475.527 147.233 474.963 145.363 474.963C142.856 474.963 140.451 475.975 138.678 477.777C136.905 479.579 135.908 482.023 135.908 484.571Z" fill="#CCCCCC"/>
<path d="M99.8496 448.984C99.8496 446.704 100.515 444.475 101.762 442.579C103.008 440.683 104.78 439.205 106.853 438.333C108.926 437.46 111.208 437.232 113.408 437.677C115.609 438.121 117.631 439.219 119.218 440.832C120.804 442.444 121.885 444.499 122.323 446.735C122.76 448.971 122.536 451.289 121.677 453.396C120.818 455.503 119.364 457.303 117.498 458.57C115.633 459.837 113.439 460.513 111.195 460.513C108.186 460.513 105.3 459.299 103.173 457.136C101.045 454.974 99.8496 452.042 99.8496 448.984ZM101.741 448.984C101.741 450.884 102.295 452.742 103.334 454.322C104.373 455.902 105.849 457.133 107.577 457.86C109.305 458.588 111.206 458.778 113.04 458.407C114.874 458.036 116.558 457.121 117.88 455.778C119.203 454.434 120.103 452.722 120.468 450.859C120.833 448.995 120.646 447.063 119.93 445.307C119.214 443.552 118.003 442.051 116.448 440.996C114.893 439.94 113.065 439.377 111.195 439.377C108.688 439.377 106.283 440.389 104.51 442.191C102.737 443.992 101.741 446.436 101.741 448.984Z" fill="#CCCCCC"/>
<path d="M603.12 421.404C601.709 422.434 600.091 423.134 598.382 423.453C596.673 423.772 594.916 423.703 593.237 423.251C590.223 422.436 587.65 420.438 586.086 417.697C584.521 414.955 584.093 411.694 584.894 408.631C584.935 408.475 584.979 408.321 585.026 408.167C585.2 407.606 585.416 407.06 585.672 406.533L562.554 301.06C562.2 299.856 562.083 298.593 562.21 297.343C562.336 296.093 562.703 294.881 563.291 293.776C563.878 292.67 564.674 291.693 565.633 290.9C566.593 290.107 567.696 289.514 568.881 289.155C570.065 288.795 571.308 288.676 572.538 288.805C573.768 288.933 574.961 289.306 576.049 289.903C577.136 290.5 578.098 291.309 578.878 292.284C579.658 293.258 580.242 294.38 580.596 295.584C580.615 295.649 580.634 295.715 580.652 295.781L602.475 401.572C604.114 402.608 605.477 404.039 606.443 405.738C607.409 407.437 607.947 409.352 608.011 411.313C608.075 413.274 607.662 415.221 606.809 416.981C605.956 418.741 604.689 420.261 603.121 421.405L603.12 421.404Z" fill="#9F616A"/>
<path d="M633.821 647.688H621.282L615.316 598.54H633.823L633.821 647.688Z" fill="#A0616A"/>
<path d="M637.018 660.039H596.588V659.52C596.588 655.279 598.246 651.212 601.197 648.213C604.148 645.214 608.15 643.529 612.323 643.529H637.018V660.039Z" fill="#2F2E41"/>
<path d="M508.111 647.286L496.182 643.364L505.39 594.737L522.999 600.525L508.111 647.286Z" fill="#A0616A"/>
<path d="M507.414 660.04L468.949 647.395L469.106 646.9C470.391 642.865 473.2 639.514 476.916 637.583C480.633 635.653 484.951 635.302 488.922 636.606L512.417 644.33L507.414 660.04Z" fill="#2F2E41"/>
<path d="M564.364 272.597C576.047 272.597 585.518 262.973 585.518 251.1C585.518 239.228 576.047 229.604 564.364 229.604C552.68 229.604 543.209 239.228 543.209 251.1C543.209 262.973 552.68 272.597 564.364 272.597Z" fill="#9F616A"/>
<path d="M592.801 334.666C595.743 323.563 582.272 288.742 581.172 284.322C575.92 283.091 563.751 285.452 556.27 283.887C545.634 292.918 537.172 305.819 531.326 311.941C525.246 318.306 521.326 322.621 527.609 337.519C535.224 355.576 533.532 374.492 533.532 374.492L538.609 420.065C538.609 420.065 517.454 480.255 519.147 520.669L499.684 619.551C499.684 619.551 505.607 629.87 517.453 624.711C517.453 624.711 545.377 573.983 542.839 537.004L573.301 468.214C573.301 468.214 594.456 533.564 600.379 539.583L615.61 632.449C615.61 632.449 629.996 636.748 636.765 632.449C636.765 632.449 639.304 543.022 624.919 528.404C624.919 528.404 610.533 466.494 613.918 450.157C617.303 433.819 618.149 408.883 592.764 386.527C592.764 386.527 593.019 386.645 585.148 371.909L592.801 334.666Z" fill="#2F2E41"/>
<path d="M575.4 217.873C574.214 217.876 573.031 217.996 571.867 218.231C569.765 217.194 567.458 216.654 565.121 216.651H564.509C552.704 216.651 543.135 227.508 543.135 240.896H547.091L547.73 235.955L548.666 240.896H551.961C550.936 244.861 550.421 248.944 550.43 253.043V277.721H556.41L559.872 268.577L559.006 277.721H597.446L600.594 269.408L599.807 277.721H604.136V258.343C604.135 235.992 591.27 217.873 575.4 217.873Z" fill="#2F2E41"/>
<path d="M531.292 433.618C529.574 433.88 527.82 433.752 526.156 433.243C524.493 432.735 522.96 431.858 521.669 430.677C520.522 429.626 519.591 428.356 518.927 426.939C518.263 425.522 517.88 423.986 517.801 422.419C517.721 420.852 517.946 419.284 518.463 417.805C518.979 416.326 519.778 414.965 520.812 413.8C520.919 413.679 521.029 413.56 521.141 413.444C521.548 413.026 521.986 412.641 522.451 412.291L549.256 307.726C549.481 306.491 549.943 305.312 550.616 304.259C551.29 303.205 552.161 302.296 553.179 301.584C554.198 300.873 555.345 300.372 556.554 300.11C557.764 299.849 559.012 299.832 560.227 300.061C561.443 300.29 562.603 300.759 563.64 301.444C564.677 302.128 565.571 303.013 566.271 304.048C566.972 305.083 567.465 306.249 567.722 307.478C567.979 308.706 567.996 309.975 567.771 311.21C567.758 311.282 567.744 311.354 567.729 311.425L539.623 415.673C540.617 417.355 541.186 419.26 541.282 421.219C541.378 423.179 540.998 425.132 540.174 426.906C539.35 428.681 538.109 430.221 536.56 431.392C535.011 432.562 533.201 433.327 531.292 433.618Z" fill="#9F616A"/>
</g>
<defs>
<clipPath id="clip0_447_37603">
<rect width="676" height="661" fill="white"/>
</clipPath>
</defs>
</svg>
