<svg width="203" height="194" viewBox="0 0 203 194" fill="none" xmlns="http://www.w3.org/2000/svg">
<g clip-path="url(#clip0_1529_46713)">
<path d="M102.38 38.8731C104.751 36.4535 107.919 35.719 109.454 37.2324C110.99 38.7458 110.312 41.9335 107.939 44.3536C107.005 45.3334 105.85 46.0745 104.571 46.515L94.3947 56.6397L89.7578 51.7503L100.282 42.2882C100.699 40.9982 101.419 39.8272 102.38 38.8731Z" fill="#FFB6B6"/>
<path d="M69.8328 30.5159L80.5026 54.2489L97.5407 45.0019L103.638 48.2467C103.638 48.2467 89.71 71.5938 80.1734 68.9361C70.6367 66.2783 53.702 42.1795 56.7532 34.7418C59.8044 27.3042 69.8328 30.5159 69.8328 30.5159Z" fill="#E6E6E6"/>
<path d="M119.293 43.9131C116.816 41.6023 115.998 38.4479 117.465 36.8676C118.932 35.2873 122.128 35.8798 124.606 38.1917C125.608 39.1016 126.378 40.2389 126.852 41.5086L137.224 51.4323L132.476 56.213L122.755 45.9224C121.458 45.5395 120.271 44.8505 119.293 43.9131Z" fill="#A0616A"/>
<path d="M171.537 45.4426L151.517 66.8126C151.517 66.8126 147.022 71.2725 139.625 64.8408C132.229 58.4091 124.006 47.857 124.006 47.857L128.619 42.8229L136.791 50.1325C136.791 50.1325 141.642 52.0898 141.979 53.3563C142.317 54.6227 141.374 55.1466 142.889 54.7408C144.405 54.3349 144.435 53.4296 144.53 54.8026C144.625 56.1756 143.699 57.7803 145.45 56.226C147.201 54.6717 147.724 55.6173 147.724 55.6173L160.519 38.6237C160.519 38.6237 168.787 32.0684 171.163 37.9445C173.54 43.8206 171.537 45.4426 171.537 45.4426Z" fill="#9C27B0"/>
<path d="M65.1559 188.687L72.9359 188.686L76.6369 158.598L65.1543 158.598L65.1559 188.687Z" fill="#FFB6B6"/>
<path d="M91.8106 188.51C92.0528 188.919 92.1806 190.239 92.1806 190.715C92.1806 192.177 90.9984 193.363 89.5401 193.363H65.4463C64.4514 193.363 63.6449 192.554 63.6449 191.556V190.551C63.6449 190.551 62.453 187.528 64.9069 183.802C64.9069 183.802 67.9567 186.719 72.514 182.15L73.858 179.709L83.586 186.842L88.9781 187.508C90.1578 187.653 91.2038 187.485 91.8106 188.51Z" fill="#2F2E41"/>
<path d="M154.823 49.8369H174.104V21.2723L154.823 21.2723V49.8369Z" fill="#2F2E41"/>
<path d="M169.776 41.1267L169.101 32.9453H160.123L158.133 41.6133L169.776 41.1267Z" fill="#A0616A"/>
<path opacity="0.1" d="M169.776 41.1267L169.101 32.9453H160.123L158.133 41.6133L169.776 41.1267Z" fill="black"/>
<path d="M71.0415 32.0383L71.1988 21.5171L64.7278 17.4727L57.6914 26.1025L71.0415 32.0383Z" fill="#FFB6B6"/>
<path opacity="0.1" d="M71.0421 32.0383L71.461 21.7793L64.7285 17.4727L67.0159 30.1687L71.0421 32.0383Z" fill="black"/>
<path d="M163.198 35.5484C168.618 35.5484 173.012 31.143 173.012 25.7088C173.012 20.2745 168.618 15.8691 163.198 15.8691C157.778 15.8691 153.385 20.2745 153.385 25.7088C153.385 31.143 157.778 35.5484 163.198 35.5484Z" fill="#A0616A"/>
<path d="M160.723 15.357C160.723 15.357 160.723 11.3175 164.464 12.1831C168.205 13.0487 169.356 14.4914 169.356 14.4914C169.356 14.4914 170.795 16.7996 173.097 17.0882C175.399 17.3767 177.413 24.0129 177.126 25.4556C176.838 26.8982 175.399 30.6492 177.413 32.3803C179.428 34.1115 182.305 36.7083 181.442 39.3051C180.579 41.9019 177.989 48.5381 177.989 48.5381C177.989 48.5381 185.213 49.5968 184.622 54.1168C184.622 54.1168 181.154 51.4235 176.55 51.4235C171.946 51.4235 172.521 43.0481 172.521 43.0481C172.521 43.0481 172.233 37.8625 171.37 36.4198C170.507 34.9771 171.658 26.8982 167.341 22.5703C163.025 18.2423 160.723 15.357 160.723 15.357Z" fill="#2F2E41"/>
<path d="M161.874 14.4912C161.874 14.4912 156.406 15.6453 154.392 21.1274C152.378 26.6096 153.395 27.6296 153.395 27.6296C153.395 27.6296 152.95 30.9307 150.505 32.0883C148.061 33.2458 150.075 38.1508 150.075 38.1508C150.075 38.1508 149.5 43.0559 141.73 44.7871C133.96 46.5182 151.474 59.7939 151.474 59.7939C151.474 59.7939 150.214 53.5282 158.272 53.2397C166.329 52.9511 156.694 38.1508 156.694 38.1508L155.831 28.6293C155.831 28.6293 157.557 17.6651 162.737 16.2224C167.917 14.7797 161.874 14.4912 161.874 14.4912Z" fill="#2F2E41"/>
<path d="M71.0611 24.7916C77.417 24.7916 82.5695 19.6255 82.5695 13.2527C82.5695 6.87999 77.417 1.71387 71.0611 1.71387C64.7052 1.71387 59.5527 6.87999 59.5527 13.2527C59.5527 19.6255 64.7052 24.7916 71.0611 24.7916Z" fill="#FFB6B6"/>
<path d="M86.7564 101.61L76.0358 174.756H62.5855L64.374 133.003L65.3153 111.049L62.5855 100.599C62.5855 100.599 61.3408 98.2757 60.2923 95.46C59.1104 92.2825 58.177 88.4732 59.5628 86.6668C60.0727 86.0009 61.3984 85.508 63.1999 85.141C64.3007 84.9155 65.582 84.7399 66.9652 84.6036C74.9193 83.8144 86.2334 84.3073 86.2334 84.3073L86.5211 93.8241L86.6806 99.1382L86.7564 101.61Z" fill="#2F2E41"/>
<path d="M20.8594 177.033L27.7132 180.724L45.1762 155.976L35.0607 150.527L20.8594 177.033Z" fill="#FFB6B6"/>
<path d="M44.4233 189.526C44.4436 190.002 43.933 191.225 43.7085 191.644C43.0183 192.933 41.4173 193.416 40.1326 192.724L18.9082 181.29C18.0318 180.818 17.703 179.723 18.1739 178.844L18.6486 177.958C18.6486 177.958 19.0255 174.73 22.9459 172.612C22.9459 172.612 24.2555 176.63 30.4269 174.767L32.7631 173.254L37.9654 184.155L42.4012 187.3C43.3717 187.988 44.3725 188.336 44.4233 189.526Z" fill="#2F2E41"/>
<path d="M86.6817 99.1382L80.992 110.577L64.3751 133.003L37.0194 169.924L25.1719 163.543L57.6473 108.718L60.1784 98.2154C60.1784 98.2154 60.1784 97.0802 60.2935 95.46C60.5184 92.2537 61.193 87.144 63.2011 85.141C63.473 84.8684 63.7685 84.6534 64.0901 84.5092C64.6941 84.2365 65.6982 84.3021 66.9664 84.6036C72.2639 85.8724 82.1503 91.323 86.5222 93.8241L86.6817 99.1382Z" fill="#2F2E41"/>
<path d="M169.045 189.604L162.356 189.604L159.174 163.733L169.047 163.734L169.045 189.604Z" fill="#A0616A"/>
<path d="M146.127 189.452C145.918 189.804 145.809 190.939 145.809 191.348C145.809 192.605 146.825 193.624 148.079 193.624H168.795C169.651 193.624 170.344 192.929 170.344 192.071V191.207C170.344 191.207 171.369 188.607 169.259 185.404C169.259 185.404 166.637 187.912 162.718 183.984L161.563 181.885L153.198 188.018L148.562 188.59C147.548 188.716 146.649 188.571 146.127 189.452Z" fill="#2F2E41"/>
<path d="M195.397 181.7L189.213 184.258L176.43 161.56L185.556 157.785L195.397 181.7Z" fill="#A0616A"/>
<path d="M174.153 190.324C174.095 190.729 174.425 191.821 174.581 192.199C175.059 193.361 176.386 193.914 177.545 193.435L196.695 185.512C197.486 185.184 197.862 184.277 197.536 183.484L197.207 182.684C197.207 182.684 197.166 179.89 193.997 177.735C193.997 177.735 192.527 181.057 187.41 178.924L185.543 177.426L180.145 186.294L176.077 188.596C175.187 189.1 174.301 189.31 174.153 190.324Z" fill="#2F2E41"/>
<path d="M172.114 100.86L169.384 111.31L170.111 128.268L171.317 156.432L171.351 157.227L171.487 160.394L172.114 175.018H158.664L152.676 134.164L147.943 101.872L148.44 85.4291L148.466 84.5692C148.466 84.5692 172.522 83.5205 175.137 86.9287C177.752 90.3369 172.114 100.86 172.114 100.86Z" fill="#2F2E41"/>
<path d="M190.828 164.505L188.548 165.687L180.115 170.063L178.881 170.702L171.487 160.394L152.676 134.164L147.943 101.872L148.44 85.429C150.569 84.75 152.271 84.4721 153.134 84.8759C157.019 86.698 156.834 98.6424 156.834 98.6424L159.2 109.182L170.111 128.268L190.828 164.505Z" fill="#2F2E41"/>
<path d="M142.195 167.729C142.022 167.198 140.71 167.432 140.584 166.957C140.459 166.484 141.717 166.087 142.683 164.753C142.857 164.513 143.954 162.997 143.533 162.36C142.736 161.151 137.186 164.161 135.854 162.472C135.562 162.101 135.442 161.465 134.571 160.281C134.224 159.81 134.002 159.582 133.737 159.589C133.36 159.599 133.225 160.071 132.633 160.927C131.744 162.211 131.424 162.05 130.839 163.102C130.404 163.883 130.353 164.382 130.04 164.412C129.597 164.453 129.413 163.481 128.872 163.443C128.319 163.405 127.766 164.366 127.492 165.116C126.977 166.525 127.296 167.602 127.367 168.675C127.443 169.841 127.263 171.548 125.999 173.739L114.08 192.78C116.64 188.898 123.906 178.313 126.834 174.431C127.679 173.31 128.587 172.184 129.985 171.973C131.331 171.769 132.968 172.436 135.254 172.398C135.521 172.393 136.264 172.371 136.444 171.976C136.594 171.65 136.223 171.366 136.358 171.059C136.539 170.648 137.353 170.824 138.463 170.551C139.245 170.358 139.777 170.04 140.234 169.766C140.372 169.683 142.425 168.436 142.195 167.729Z" fill="#F2F2F2"/>
<path d="M110.976 172.175C110.666 172.107 110.402 172.82 110.133 172.745C109.865 172.67 110.034 171.936 109.66 171.076C109.592 170.921 109.167 169.944 108.733 169.967C107.912 170.011 107.784 173.61 106.573 173.778C106.307 173.815 105.961 173.691 105.13 173.778C104.799 173.812 104.624 173.856 104.55 173.989C104.446 174.177 104.639 174.38 104.887 174.918C105.259 175.726 105.088 175.837 105.434 176.429C105.691 176.868 105.92 177.037 105.844 177.2C105.737 177.43 105.208 177.239 105.033 177.495C104.855 177.756 105.166 178.305 105.454 178.657C105.995 179.316 106.614 179.47 107.16 179.745C107.753 180.044 108.537 180.625 109.244 181.879L115.126 193.238C113.964 190.859 110.88 184.229 109.824 181.668C109.519 180.929 109.23 180.157 109.53 179.408C109.818 178.687 110.618 178.074 111.258 176.938C111.333 176.805 111.536 176.433 111.395 176.23C111.279 176.063 111.033 176.163 110.921 176.008C110.772 175.801 111.094 175.451 111.28 174.826C111.411 174.385 111.409 174.032 111.407 173.728C111.406 173.636 111.388 172.266 110.976 172.175Z" fill="#F2F2F2"/>
<path d="M116.844 174.946L117.029 173.235L117.142 173.127C117.667 172.63 117.995 172.103 118.118 171.561C118.137 171.475 118.153 171.388 118.168 171.299C118.23 170.947 118.306 170.51 118.643 170.055C118.832 169.802 119.332 169.23 119.847 169.43C119.986 169.482 120.08 169.573 120.145 169.669C120.161 169.652 120.178 169.635 120.196 169.617C120.418 169.401 120.574 169.321 120.724 169.245C120.839 169.186 120.958 169.125 121.16 168.964C121.248 168.893 121.319 168.829 121.378 168.776C121.559 168.614 121.79 168.424 122.107 168.499C122.443 168.591 122.558 168.912 122.634 169.125C122.771 169.504 122.813 169.765 122.84 169.938C122.85 170.001 122.862 170.072 122.871 170.095C122.944 170.281 123.867 170.329 124.214 170.349C124.994 170.392 125.669 170.428 125.831 170.964C125.948 171.347 125.705 171.765 125.089 172.239C124.897 172.387 124.705 172.488 124.538 172.565C124.641 172.662 124.723 172.795 124.728 172.975C124.739 173.402 124.302 173.73 123.428 173.951C123.211 174.007 122.919 174.081 122.537 174.062C122.358 174.053 122.2 174.025 122.066 174C122.046 174.076 122.009 174.156 121.943 174.232C121.748 174.455 121.434 174.512 121.008 174.386C120.538 174.255 120.166 174.076 119.838 173.919C119.551 173.782 119.304 173.665 119.097 173.633C118.712 173.579 118.352 173.817 117.922 174.135L116.844 174.946Z" fill="#F2F2F2"/>
<path d="M119.92 165.199L118.222 165.453L118.089 165.371C117.476 164.988 116.885 164.803 116.331 164.821C116.243 164.824 116.155 164.832 116.065 164.839C115.71 164.869 115.269 164.906 114.745 164.694C114.453 164.575 113.774 164.236 113.836 163.685C113.852 163.537 113.915 163.423 113.991 163.336C113.971 163.324 113.95 163.312 113.929 163.299C113.663 163.138 113.547 163.007 113.435 162.881C113.349 162.785 113.26 162.685 113.053 162.53C112.963 162.463 112.883 162.41 112.817 162.366C112.615 162.232 112.373 162.055 112.365 161.729C112.369 161.38 112.649 161.187 112.835 161.059C113.166 160.831 113.407 160.724 113.567 160.653C113.625 160.627 113.691 160.598 113.711 160.584C113.872 160.465 113.684 159.558 113.615 159.217C113.458 158.449 113.323 157.785 113.798 157.492C114.138 157.282 114.603 157.411 115.217 157.888C115.408 158.037 115.555 158.197 115.67 158.34C115.738 158.216 115.846 158.103 116.018 158.052C116.428 157.933 116.855 158.274 117.29 159.065C117.399 159.261 117.544 159.525 117.623 159.901C117.66 160.077 117.673 160.237 117.682 160.374C117.761 160.374 117.848 160.39 117.937 160.435C118.202 160.567 118.336 160.857 118.323 161.302C118.316 161.791 118.237 162.197 118.169 162.555C118.11 162.868 118.059 163.137 118.081 163.346C118.127 163.734 118.448 164.022 118.864 164.359L119.92 165.199Z" fill="#F2F2F2"/>
<path d="M120.148 160.087L120.333 158.375L120.447 158.268C120.971 157.771 121.299 157.244 121.423 156.702C121.442 156.616 121.457 156.529 121.473 156.44C121.534 156.088 121.61 155.65 121.948 155.196C122.137 154.943 122.636 154.371 123.151 154.571C123.29 154.623 123.384 154.713 123.449 154.809C123.466 154.793 123.483 154.776 123.501 154.758C123.723 154.541 123.879 154.462 124.029 154.385C124.144 154.326 124.263 154.266 124.464 154.104C124.553 154.034 124.623 153.97 124.683 153.916C124.864 153.754 125.095 153.565 125.412 153.64C125.747 153.732 125.862 154.053 125.939 154.266C126.075 154.645 126.117 154.906 126.145 155.079C126.155 155.142 126.167 155.213 126.175 155.236C126.249 155.422 127.171 155.47 127.518 155.49C128.299 155.532 128.974 155.569 129.136 156.105C129.253 156.488 129.01 156.906 128.394 157.38C128.202 157.527 128.01 157.629 127.843 157.705C127.946 157.803 128.027 157.935 128.032 158.116C128.044 158.543 127.607 158.871 126.733 159.092C126.516 159.148 126.224 159.221 125.842 159.203C125.662 159.194 125.505 159.166 125.37 159.14C125.35 159.217 125.313 159.297 125.247 159.373C125.053 159.596 124.739 159.652 124.313 159.527C123.842 159.395 123.471 159.216 123.143 159.059C122.856 158.922 122.609 158.805 122.402 158.773C122.016 158.719 121.657 158.958 121.227 159.276L120.148 160.087Z" fill="#F2F2F2"/>
<path d="M114.644 192.877L114.344 192.579L113.926 192.535C113.928 192.496 113.926 192.404 113.922 192.26C113.906 191.473 113.857 189.077 114.189 185.395C114.422 182.825 114.81 180.217 115.343 177.64C115.878 175.06 116.432 173.14 116.878 171.597C117.214 170.433 117.553 169.33 117.884 168.254C118.768 165.381 119.603 162.668 120.119 159.572C120.235 158.882 120.475 157.443 119.984 155.746C119.698 154.761 119.21 153.834 118.531 152.992L119.188 152.46C119.937 153.391 120.477 154.417 120.794 155.51C121.339 157.393 121.077 158.96 120.952 159.713C120.426 162.863 119.583 165.603 118.69 168.503C118.361 169.574 118.023 170.674 117.688 171.833C117.247 173.361 116.697 175.265 116.17 177.812C115.642 180.357 115.259 182.934 115.029 185.471C114.701 189.106 114.75 191.467 114.766 192.242C114.775 192.656 114.776 192.743 114.644 192.877Z" fill="#F2F2F2"/>
<path d="M116.728 153.966C116.695 153.958 116.661 153.95 116.627 153.94C115.934 153.745 115.378 153.179 114.975 152.258C114.786 151.825 114.741 151.369 114.652 150.459C114.638 150.319 114.577 149.61 114.652 148.669C114.702 148.055 114.767 147.808 114.934 147.614C115.119 147.398 115.369 147.275 115.633 147.213C115.64 147.131 115.666 147.052 115.719 146.977C115.936 146.664 116.299 146.792 116.496 146.859C116.595 146.895 116.719 146.94 116.858 146.964C117.076 147.002 117.207 146.963 117.405 146.906C117.594 146.851 117.829 146.782 118.154 146.788C118.795 146.797 119.27 147.086 119.426 147.181C120.251 147.678 120.535 148.47 120.864 149.387C120.93 149.571 121.147 150.236 121.198 151.092C121.234 151.709 121.154 151.962 121.061 152.143C120.872 152.514 120.583 152.687 119.864 153.049C119.114 153.429 118.737 153.619 118.429 153.717C117.71 153.943 117.259 154.085 116.728 153.966Z" fill="#F2F2F2"/>
<path d="M213 193.692C213 193.862 212.863 194 212.693 194H0V193.385H212.693C212.863 193.385 213 193.523 213 193.692Z" fill="#E6E6E6"/>
<path d="M59.172 23.877L72.2458 30.169C72.2458 30.169 86.1041 71.3296 86.1041 73.427C86.1041 75.5243 90.0262 76.8352 87.6729 79.1947C85.3197 81.5542 92.0531 83.5525 88.4249 85.4372C84.7967 87.322 62.1635 97.6312 59.6468 96.7015C52.7056 94.1375 59.9409 84.7158 59.9409 84.7158C59.9409 84.7158 54.7268 80.5056 55.5113 78.4082C56.2957 76.3109 50.8047 36.1989 50.8047 36.1989L59.172 23.877Z" fill="#E6E6E6"/>
<path d="M70.3593 16.0164L71.8395 18.9847C71.8395 18.9847 73.3198 13.6418 75.6881 12.4545C78.0564 11.2672 78.3525 9.48626 78.3525 9.48626C78.3525 9.48626 81.3129 13.345 83.3852 12.4545C85.4575 11.564 86.3456 10.9704 83.9773 7.40847C81.609 3.84655 82.201 5.6275 82.201 5.6275C82.201 5.6275 80.1287 2.65924 80.4248 3.54972C80.7208 4.4402 78.6485 1.1751 78.6485 2.06558C78.6485 2.95606 77.1683 0.28462 77.1683 1.1751C77.1683 2.06558 70.9514 -0.902686 71.8395 0.284623C72.7277 1.47193 66.5108 -2.08999 63.5503 2.65924C60.5899 7.40847 56.4849 6.53019 57.9453 9.49235C59.4057 12.4545 58.8137 20.4688 58.8137 20.4688H62.8965C62.8965 20.4688 67.1029 12.4545 70.3593 16.0164Z" fill="#2F2E41"/>
<path d="M157.486 41.1807L157.725 41.1128L169.514 37.7725L178.927 50.6188L172.651 77.36L175.005 88.109C175.005 88.109 155.917 83.1278 148.334 87.3225C148.334 87.3225 147.811 84.932 148.334 83.7677C148.857 82.6034 149.641 77.7585 148.857 75.593C148.073 73.4275 150.426 63.2029 150.426 63.2029C150.426 63.2029 149.641 56.3865 153.041 52.9783C156.44 49.5701 157.486 41.1807 157.486 41.1807Z" fill="#9C27B0"/>
<path d="M146.781 89.4675L105.358 68.8268C105.151 68.7241 104.971 68.5827 104.822 68.4065L98.3589 60.7689C97.9303 60.2624 97.8375 59.5475 98.1226 58.9478L110.242 33.4534C110.454 33.0066 110.85 32.6767 111.327 32.5482C111.804 32.4199 112.311 32.5068 112.718 32.7868L141.931 52.8787C142.531 53.2911 142.799 54.0389 142.598 54.7396L136.667 75.4346C136.504 76.0007 136.711 76.6184 137.181 76.9717L148.914 85.795C149.546 86.2701 149.764 87.1368 149.434 87.8557L149.062 88.662C148.87 89.0804 148.525 89.395 148.092 89.5482C147.908 89.6131 147.718 89.6453 147.53 89.6453C147.273 89.6452 147.018 89.5857 146.781 89.4675Z" fill="#9C27B0"/>
<path d="M146.45 84.4439L134.919 74.8249C134.82 74.741 134.741 74.6388 134.686 74.526C134.582 74.3137 134.561 74.0594 134.639 73.826L141.21 54.5487C141.38 54.0506 141.197 53.4948 140.763 53.1959L113.386 34.4036C113.107 34.2096 112.756 34.1493 112.427 34.2358C112.095 34.3224 111.82 34.5478 111.669 34.8546L100.127 58.3528C99.9518 58.7067 99.9649 59.1131 100.158 59.4513C100.182 59.4985 100.211 59.5431 100.245 59.585L106.049 67.2666C106.162 67.4134 106.308 67.534 106.473 67.6152L145.187 86.4102C145.349 86.4888 145.525 86.5282 145.7 86.5282C146.003 86.5282 146.306 86.4102 146.531 86.1821C146.557 86.1533 146.584 86.127 146.61 86.0956C146.793 85.8727 146.887 85.587 146.874 85.296C146.858 84.9656 146.704 84.6563 146.45 84.4439Z" fill="#F2F2F2"/>
<path d="M104.668 56.91C104.763 56.91 104.855 56.8573 104.901 56.7658L114.286 38.0726C114.351 37.9432 114.299 37.7856 114.17 37.7206C114.04 37.6552 113.884 37.7075 113.819 37.8368L104.434 56.53C104.369 56.6594 104.421 56.817 104.55 56.882C104.588 56.9011 104.628 56.91 104.668 56.91Z" fill="#9C27B0"/>
<path d="M109.636 60.0565C109.732 60.0565 109.824 60.0038 109.87 59.9123L119.254 41.2191C119.319 41.0897 119.267 40.9321 119.138 40.8671C119.009 40.8016 118.852 40.8542 118.787 40.9833L109.403 59.6765C109.338 59.8059 109.39 59.9635 109.519 60.0285C109.557 60.0476 109.597 60.0565 109.636 60.0565Z" fill="#9C27B0"/>
<path d="M113.82 62.6786C113.916 62.6786 114.008 62.6258 114.054 62.5343L123.438 43.8412C123.503 43.7117 123.451 43.5542 123.322 43.4891C123.193 43.4237 123.036 43.4761 122.971 43.6054L113.587 62.2985C113.522 62.4279 113.574 62.5855 113.703 62.6505C113.74 62.6696 113.78 62.6786 113.82 62.6786Z" fill="#9C27B0"/>
<path d="M99.0081 60.1459C102.253 59.1848 105.377 60.0843 105.987 62.1548C106.597 64.2253 104.461 66.6822 101.215 67.6433C99.9236 68.045 98.555 68.1308 97.2238 67.8935L83.4248 71.7918L81.7383 65.2602L95.5207 62.1106C96.51 61.1859 97.7058 60.5122 99.0081 60.1459Z" fill="#FFB6B6"/>
<path d="M74.6009 36.9983L72.4381 62.9407L91.811 63.1495L95.5709 68.9543C95.5709 68.9543 72.0898 82.5863 65.0391 75.6208C57.9884 68.6553 54.8512 39.3438 61.1199 34.3265C67.3886 29.3092 74.6009 36.9983 74.6009 36.9983Z" fill="#E6E6E6"/>
<path d="M138.065 83.8381C134.691 83.5833 132.087 81.6315 132.249 79.4787C132.411 77.326 135.277 75.788 138.652 76.0433C140.002 76.1268 141.312 76.5331 142.473 77.2282L156.754 78.4887L156.021 85.1955L142.02 83.2408C140.768 83.7538 139.412 83.9586 138.065 83.8381Z" fill="#A0616A"/>
<path d="M179.831 52.3318L177.497 81.5567C177.497 81.5567 176.762 87.8548 166.98 87.4599C157.197 87.0651 144.203 83.9689 144.203 83.9689L144.673 77.1486L155.607 77.7441C155.607 77.7441 160.616 76.2365 161.668 77.0147C162.72 77.7929 162.31 78.7924 163.241 77.5267C164.172 76.2609 163.632 75.5352 164.561 76.5483C165.49 77.5614 165.766 79.3944 166.166 77.0841C166.566 74.7738 167.563 75.1854 167.563 75.1854L166.978 53.9012C166.978 53.9012 169.355 43.6051 174.871 46.7078C180.386 49.8105 179.831 52.3318 179.831 52.3318Z" fill="#9C27B0"/>
</g>
<defs>
<clipPath id="clip0_1529_46713">
<rect width="213" height="194" fill="white"/>
</clipPath>
</defs>
</svg>
