<svg width="233" height="186" viewBox="0 0 233 186" fill="none" xmlns="http://www.w3.org/2000/svg">
<g clip-path="url(#clip0_1529_46687)">
<path d="M196.365 178.087C197.282 178.144 197.789 177.002 197.095 176.337L197.026 176.063C197.035 176.041 197.044 176.019 197.053 175.997C197.6 174.689 199.107 174.07 200.415 174.612C204.552 176.324 200.185 180.26 200.513 182.922C200.628 183.841 204.223 183.892 204.02 184.794C205.931 180.608 206.937 176.038 206.935 171.443C206.935 170.288 206.871 169.134 206.742 167.982C206.635 167.04 206.489 166.104 206.299 165.176C205.273 160.161 203.054 155.386 199.855 151.397C198.317 150.556 199.255 149.241 198.48 147.664C198.202 147.096 195.719 147.083 195.615 146.46C195.726 146.474 197.331 144.805 196.801 143.98C196.452 143.437 196.561 142.745 197.009 142.281C197.053 142.235 197.094 142.187 197.132 142.136C198.456 140.337 200.281 140.65 201.235 143.094C203.27 144.121 203.29 145.827 202.042 147.468C201.248 148.511 201.139 149.924 200.443 151.041C200.514 151.133 200.589 151.222 200.661 151.314C201.976 153.002 203.114 154.817 204.074 156.724C203.802 154.605 204.201 152.051 204.883 150.405C205.664 148.516 207.134 146.926 208.422 145.292C209.959 143.341 213.089 144.226 213.361 146.697C213.364 146.721 213.366 146.745 213.369 146.769C213.178 146.876 212.992 146.991 212.809 147.111C211.771 147.8 212.131 149.412 213.362 149.602L213.39 149.606C213.321 150.293 210.888 152.455 210.717 153.125C212.362 159.487 211.131 160.327 206.069 160.434L205.803 160.813C206.283 162.194 206.669 163.608 206.959 165.041C207.232 166.37 207.421 167.715 207.528 169.064C207.66 170.768 207.65 172.479 207.507 174.18L207.515 174.119C207.879 172.247 208.894 170.497 210.368 169.285C212.563 167.477 215.666 166.811 218.035 165.358C219.175 164.659 220.637 165.561 220.439 166.886L220.429 166.949C220.076 167.093 219.732 167.259 219.399 167.446C219.209 167.554 219.022 167.668 218.84 167.789C217.801 168.478 218.161 170.091 219.392 170.28L219.42 170.284C219.44 170.287 219.458 170.29 219.478 170.293C218.873 171.732 213.111 173.762 212.056 174.914C211.03 180.472 211.534 180.306 206.811 178.689H206.808C206.293 180.941 205.539 183.142 204.571 185.239L196.568 185.241C196.539 185.152 196.513 185.061 196.488 184.972C197.228 185.017 197.973 184.974 198.702 184.839C198.108 184.109 197.514 183.374 196.92 182.645C196.906 182.631 196.894 182.616 196.883 182.602L196.874 182.591L196.05 179.875C196.115 179.272 196.221 178.675 196.365 178.087Z" fill="#F2F2F2"/>
<path d="M111.798 185.177L40.9847 185.202C37.4272 185.203 34.2405 183.362 32.4607 180.278C31.5707 178.735 31.1256 177.043 31.125 175.351C31.1244 173.659 31.5686 171.966 32.4573 170.424L67.8413 105.922C69.6192 102.836 72.8046 100.993 76.3621 100.992C79.9196 100.991 83.1062 102.832 84.8863 105.916L120.319 170.401C121.207 171.94 121.651 173.63 121.651 175.321C121.651 177.012 121.207 178.704 120.318 180.247C118.541 183.333 115.355 185.176 111.798 185.177ZM32.0151 175.35C32.015 176.89 39.829 173.571 40.6385 174.974C42.2578 177.78 37.7478 184.314 40.9843 184.312C40.9843 184.312 117.932 182.61 119.549 179.803C120.358 178.399 120.762 176.859 120.761 175.32C120.761 173.781 120.355 172.241 119.546 170.838L84.1125 106.353C82.4978 103.555 79.5989 101.88 76.3624 101.882C73.1274 101.883 32.0152 173.809 32.0151 175.35Z" fill="#3F3D56"/>
<path d="M112.582 184.287C111.695 186.066 153.267 185.52 153.758 185.519C153.758 185.519 165.443 185.261 165.689 184.835C165.812 184.622 165.873 184.388 165.873 184.154C165.873 183.92 165.811 183.686 165.688 183.473L160.308 173.681C160.063 173.256 159.622 173.002 159.131 173.002C159.11 173.002 159.08 173.02 159.041 173.055C151.863 179.478 143.017 183.724 133.392 183.867C123.157 184.02 112.639 184.174 112.582 184.287Z" fill="#3F3D56"/>
<path d="M3.32406e-08 185.471C0.000102174 185.765 0.235562 186 0.528674 186L232.472 185.92C232.765 185.92 233 185.684 233 185.39C233 185.097 232.764 184.861 232.471 184.861L0.52831 184.942C0.235198 184.942 -0.000102107 185.178 3.32406e-08 185.471Z" fill="#CCCCCC"/>
<path d="M179.357 182.903L175.34 182.904L173.424 167.39L179.352 167.389L179.357 182.903Z" fill="#A0616A"/>
<path d="M165.595 182.817C165.47 183.027 165.404 183.708 165.404 183.954C165.405 184.707 166.015 185.318 166.768 185.318L179.207 185.314C179.721 185.314 180.137 184.897 180.137 184.382L180.137 183.864C180.137 183.864 180.752 182.305 179.484 180.384C179.484 180.384 177.91 181.889 175.556 179.534L174.862 178.275L169.841 181.955L167.057 182.299C166.448 182.375 165.908 182.288 165.595 182.817Z" fill="#2F2E41"/>
<path d="M163.955 169.634L160.15 170.923L153.373 156.841L158.988 154.938L163.955 169.634Z" fill="#A0616A"/>
<path d="M150.891 173.965C150.84 174.205 150.995 174.871 151.074 175.104C151.315 175.818 152.089 176.201 152.802 175.959L164.585 171.966C165.071 171.801 165.332 171.272 165.168 170.785L165.002 170.294C165.002 170.294 165.085 168.62 163.27 167.207C163.27 167.207 162.26 169.137 159.278 167.661L158.217 166.691L154.638 171.788L152.111 173.006C151.558 173.273 151.018 173.364 150.891 173.965Z" fill="#2F2E41"/>
<path d="M157.752 79.6388L149.961 105.476L140.764 128.715L155.325 161.904L160.724 159.499L154.263 129.011L167.811 108.323L174.134 172.906L179.533 172.604L186.856 94.6485L187.9 77.6758L157.752 79.6388Z" fill="#2F2E41"/>
<path d="M181.281 22.4053L169.882 24.512L168.984 29.619L162.085 32.9258L158.498 70.4764C158.498 70.4764 152.501 78.2888 157.302 80.6903L187.9 77.6758C187.9 77.6758 189.398 72.1215 187.898 71.5945C186.397 71.0676 186.393 57.8005 186.393 57.8005L193.283 30.5118L183.082 26.9106L181.281 22.4053Z" fill="#E6E6E6"/>
<path d="M174.558 22.3067C179.642 22.3067 183.763 18.18 183.763 13.0894C183.763 7.9988 179.642 3.87207 174.558 3.87207C169.475 3.87207 165.354 7.9988 165.354 13.0894C165.354 18.18 169.475 22.3067 174.558 22.3067Z" fill="#A0616A"/>
<path d="M180.654 14.4578C179.92 14.8605 180.617 16.7829 180.157 16.9491C179.627 17.1413 177.692 14.936 177.668 12.4659C177.661 11.7183 177.833 11.3594 177.667 10.473C177.451 9.31355 176.788 7.94603 176.174 7.98233C175.81 8.00385 175.454 8.51917 175.428 8.97906C175.391 9.62359 176.016 9.87728 175.926 10.2245C175.754 10.8858 173.129 11.3423 172.194 10.2258C171.461 9.35039 172.023 7.81346 171.696 7.73477C171.454 7.67676 171.195 8.52294 170.204 9.4791C169.83 9.83934 169.275 10.3751 168.96 10.2269C168.505 10.0127 168.836 8.50317 168.711 8.48315C168.607 8.46658 168.542 9.52759 167.965 10.4763C167.223 11.6952 165.694 12.6347 164.98 12.2212C164.543 11.9678 164.508 11.2624 164.482 10.7267C164.427 9.59798 162.789 7.00177 163.213 5.79435C164.075 3.33687 165.553 5.06916 166.221 4.24904C167.126 3.13879 167.938 3.73572 169.455 2.5041C170.937 1.30093 170.95 0.0916511 171.942 0.0120697C172.835 -0.0595962 173.153 0.894899 174.181 0.758643C175.052 0.643215 175.241 -0.0970967 175.922 0.0106868C176.546 0.109363 176.587 0.761538 177.415 1.00664C177.944 1.16311 178.06 0.936629 178.659 1.0062C179.905 1.15098 180.742 2.28727 180.899 2.50013C181.503 3.32069 181.269 3.66673 181.895 4.49271C182.434 5.20501 183.631 4.90254 184.08 5.2583C185.55 6.42075 186.181 8.56454 186.194 11.0079C186.203 12.7169 185.981 13.5804 185.484 15.7375C185.107 17.3754 183.361 19.4921 182.398 20.436C182.139 20.6894 181.415 21.3996 180.905 21.1839C180.423 20.9794 180.408 20.0599 180.407 19.9385C180.405 19.5209 180.516 19.0042 181.402 17.6961C182.332 16.322 182.701 16.1651 182.645 15.7027C182.545 14.8853 181.24 14.1369 180.654 14.4578Z" fill="#2F2E41"/>
<path d="M148.545 100.393C148.258 102.796 149.264 104.891 150.791 105.074C152.317 105.256 153.787 103.457 154.074 101.054C154.199 100.003 154.077 99.0097 153.772 98.2104L154.858 88.0151L150.07 87.6064L149.507 97.7004C149.022 98.4053 148.67 99.3414 148.545 100.393Z" fill="#A0616A"/>
<path d="M162.311 32.6836C162.311 32.6836 159.83 32.7189 158.187 35.9315C157.314 37.6387 152.644 69.5622 152.644 69.5622L148.342 95.7136L155.67 95.7506L161.381 70.9846L166.185 56.6208L162.311 32.6836Z" fill="#E6E6E6"/>
<path d="M182.933 96.5548C182.231 98.8701 182.855 101.109 184.326 101.557C185.798 102.004 187.559 100.489 188.261 98.1742C188.568 97.1607 188.621 96.1618 188.461 95.3213L191.311 85.4735L186.668 84.2324L184.35 94.0722C183.75 94.6814 183.24 95.5413 182.933 96.5548Z" fill="#A0616A"/>
<path d="M188.034 30.9647C188.034 30.9647 191.633 28.2599 194.634 32.4644C197.635 36.6689 198.847 71.214 198.847 71.214L190.455 92.545L184.154 90.4444L190.145 64.3079L179.639 44.4855L188.034 30.9647Z" fill="#E6E6E6"/>
<path d="M97.0239 170.952C114.928 170.952 129.442 156.418 129.442 138.49C129.442 120.561 114.928 106.027 97.0239 106.027C79.1197 106.027 64.6055 120.561 64.6055 138.49C64.6055 156.418 79.1197 170.952 97.0239 170.952Z" fill="#9C27B0"/>
<path d="M97.0293 158.389C98.6732 158.389 100.006 157.054 100.006 155.408C100.006 153.762 98.6732 152.428 97.0293 152.428C95.3854 152.428 94.0527 153.762 94.0527 155.408C94.0527 157.054 95.3854 158.389 97.0293 158.389Z" fill="white"/>
<path d="M97.0171 118.589C96.7437 120.409 97.2336 120.789 97.2363 128.633C97.239 136.476 98.8643 146.992 97.0269 146.993C95.1896 146.993 94.5176 125.291 88.1377 123.37C80.6367 121.112 97.9023 112.7 97.0171 118.589Z" fill="white"/>
<path d="M53.5135 155.064L50.5846 161.261C54.1255 158.718 59.6561 156.527 64.0572 155.353C59.9565 153.369 54.9387 150.171 51.9409 147.005L53.6255 153.553C33.8751 149.525 19.6921 134.353 19.6861 116.973L18.9727 116.728C18.9789 134.881 32.9658 150.951 53.5135 155.064Z" fill="#3F3D56"/>
</g>
<defs>
<clipPath id="clip0_1529_46687">
<rect width="233" height="186" fill="white"/>
</clipPath>
</defs>
</svg>
