<svg width="37" height="36" viewBox="0 0 37 36" fill="none" xmlns="http://www.w3.org/2000/svg">
<path d="M2.81587 18.3466C3.76689 18.8485 6.12306 20.3221 7.0452 21.248C7.96734 22.1738 7.82354 21.9794 8.46116 22.8178C9.09879 23.6563 8.22501 24.2965 7.14873 24.4953C6.07245 24.694 5.75477 24.4259 4.372 25.7763C3.69084 26.4415 3.47276 28.7244 5.22004 30.4273C7.59137 32.7384 10.2449 32.8562 11.2562 31.8076C12.2676 30.759 11.3947 27.9282 12.3635 27.6518C13.3323 27.3754 15.6962 30.059 15.6962 30.059C15.6962 30.059 16.4708 30.9767 18.2294 33.3687C19.988 35.7608 20.7427 34.5976 21.5628 33.7966L23.0781 32.3168L25.205 30.2397C26.9009 28.5835 26.0122 28.7209 22.9784 27.3916C19.9446 26.0623 22.0272 23.3892 22.995 22.444C25.9004 19.6067 27.4963 21.0716 27.7881 21.4464C28.3131 22.1209 28.5448 22.8078 28.8054 23.984C28.9779 24.7628 29.9348 25.6 30.5014 25.0673C32.173 23.4958 34.564 21.1607 35.1478 20.5905C35.8131 19.9409 36.364 19.0071 34.766 17.8586C32.9285 16.5379 30.5108 14.7693 29.292 13.7984C28.312 13.0178 28.0391 12.2519 29.1455 11.5671C30.2584 11.2413 31.985 10.9255 32.5866 10.5809C33.3404 10.1492 34.0755 7.71931 31.6768 5.38146C30.0699 3.81539 26.7086 3.41467 25.624 4.71741C25.1097 5.21971 25.0309 7.17179 24.8978 8.10536C24.7647 9.03894 23.7156 8.33653 23.2077 7.86862C21.9908 6.68267 20.5185 4.40686 19.0943 2.44926C17.9371 0.858523 16.5879 1.33554 16.1152 1.79712L11.3749 6.42649C10.4955 7.28531 11.4826 7.67075 12.1801 7.86225C12.7498 7.96542 14.6904 8.10935 15.6975 9.66288C16.7004 11.21 13.0693 15.6998 10.0953 15.134C9.06652 14.9383 8.79591 13.298 8.24601 11.7042C7.80609 10.4292 6.94204 10.786 6.56501 11.1237L1.61614 15.9568C0.184299 17.3551 1.54109 17.6738 2.81587 18.3466Z" fill="#9C27B0" stroke="#9C27B0" stroke-width="1.49748"/>
</svg>
