<svg width="181" height="197" viewBox="0 0 181 197" fill="none" xmlns="http://www.w3.org/2000/svg">
<path d="M107.842 149.461C109.18 151.048 112.314 155.381 113.267 157.685C114.219 159.988 114.11 159.542 114.613 161.48C115.116 163.417 113.022 163.876 110.906 163.414C108.79 162.953 108.422 162.248 104.843 163.56C103.08 164.207 100.891 168.017 102.736 172.292C105.24 178.094 109.98 180.29 112.645 179.224C115.31 178.158 115.943 172.576 117.925 172.821C119.906 173.067 122.104 179.512 122.104 179.512C122.104 179.512 122.794 181.691 124.119 187.173C125.443 192.656 127.731 191.198 129.853 190.419L133.775 188.981L139.279 186.962C143.668 185.351 141.941 184.924 137.46 180.333C132.979 175.743 138.87 172.653 141.375 171.735C148.894 168.976 150.65 172.723 150.887 173.595C151.314 175.163 151.196 176.532 150.747 178.775C150.45 180.26 151.535 182.435 152.985 181.933C157.263 180.452 163.451 178.182 164.962 177.628C166.684 176.996 168.42 175.784 166.412 172.586C164.102 168.909 161.088 164.016 159.63 161.412C158.459 159.318 158.563 157.78 161.115 157.418C163.398 157.686 166.79 158.432 168.156 158.284C169.868 158.098 173.115 154.42 170.582 148.551C168.885 144.619 163.078 141.4 160.08 142.853C158.749 143.342 157.073 146.68 156.098 148.205C155.122 149.73 153.763 147.721 153.205 146.525C151.921 143.548 151.026 138.482 149.969 134.006C149.111 130.369 146.279 130.187 145.056 130.636L132.788 135.136C130.513 135.971 132.008 137.383 133.128 138.239C134.084 138.846 137.505 140.553 138.12 144.013C138.731 147.458 128.594 152.548 123.622 149.332C121.902 148.219 122.697 145.161 122.947 141.974C123.147 139.425 121.293 139.398 120.341 139.703L107.534 144.401C103.828 145.761 106.049 147.334 107.842 149.461Z" fill="#9C27B0" fill-opacity="0.3"/>
<path d="M10.808 123.98C12.2201 124.811 15.6949 127.21 17.0189 128.663C18.343 130.115 18.1416 129.815 19.0368 131.111C19.9319 132.407 18.5213 133.263 16.8444 133.45C15.1676 133.636 14.7062 133.211 12.4392 135.061C11.3225 135.973 10.7522 139.309 13.2663 141.986C16.6783 145.618 20.75 146.052 22.4144 144.609C24.0787 143.166 23.0263 138.916 24.5457 138.605C26.0651 138.294 29.4274 142.473 29.4274 142.473C29.4274 142.473 30.5252 143.899 32.9859 147.59C35.4465 151.282 36.7275 149.645 38.0722 148.547L40.5563 146.52L44.0432 143.673C46.8237 141.404 45.4417 141.518 40.9092 139.265C36.3767 137.012 39.8567 133.285 41.4434 131.989C46.2066 128.101 48.5121 130.413 48.9227 130.993C49.6614 132.036 49.9474 133.07 50.2275 134.825C50.413 135.988 51.7995 137.313 52.7264 136.585C55.4605 134.438 59.3805 131.238 60.3376 130.457C61.4283 129.567 62.3722 128.247 60.0308 126.401C57.3387 124.278 53.7995 121.439 52.0235 119.891C50.5955 118.647 50.2543 117.493 52.0274 116.595C53.7737 116.225 56.4634 115.93 57.4248 115.482C58.6292 114.921 60.0105 111.419 56.559 107.745C54.2469 105.283 49.115 104.364 47.3119 106.173C46.4686 106.862 46.1466 109.725 45.8459 111.085C45.5451 112.445 44.0027 111.309 43.269 110.571C41.5182 108.707 39.4861 105.215 37.4955 102.195C35.878 99.7419 33.7525 100.311 32.9776 100.944L25.2061 107.287C23.7644 108.464 25.2441 109.128 26.2978 109.478C27.164 109.686 30.1358 110.088 31.5261 112.472C32.9106 114.847 26.8606 121.094 22.3416 119.969C20.7785 119.58 20.5306 117.141 19.8481 114.743C19.3021 112.824 17.9356 113.264 17.3206 113.724L9.20729 120.347C6.85989 122.263 8.91528 122.865 10.808 123.98Z" fill="#9C27B0" fill-opacity="0.3"/>
<path d="M128.09 67.7921C127.8 68.5419 126.911 70.4196 126.303 71.1848C125.696 71.9501 125.828 71.8264 125.261 72.3728C124.694 72.9191 124.142 72.326 123.901 71.5441C123.66 70.7621 123.831 70.5029 122.708 69.5936C122.155 69.1456 120.441 69.1822 119.328 70.6277C117.818 72.5895 117.962 74.5701 118.828 75.2299C119.695 75.8897 121.721 74.9954 122.01 75.6908C122.3 76.3861 120.513 78.3748 120.513 78.3748C120.513 78.3748 119.899 79.0298 118.275 80.5436C116.652 82.0574 117.581 82.5167 118.247 83.056L119.478 84.0525L121.205 85.4513C122.583 86.5666 122.403 85.9186 123.127 83.5503C123.85 81.1819 126.016 82.4959 126.802 83.1324C129.161 85.0431 128.212 86.3555 127.959 86.6048C127.504 87.0533 127.014 87.2851 126.164 87.5808C125.6 87.7767 125.062 88.56 125.507 88.9344C126.819 90.039 128.761 91.6114 129.235 91.9954C129.775 92.4329 130.516 92.7608 131.23 91.4743C132.051 89.9951 133.154 88.046 133.769 87.0565C134.264 86.261 134.809 85.9917 135.413 86.7538C135.752 87.5518 136.137 88.8064 136.445 89.2232C136.831 89.7454 138.699 90.08 140.227 88.0955C141.25 86.7661 141.255 84.2354 140.193 83.5433C139.776 83.205 138.319 83.3162 137.615 83.2986C136.91 83.281 137.34 82.4409 137.643 82.023C138.418 81.0163 139.98 79.7251 141.31 78.4974C142.391 77.4998 141.919 76.5394 141.535 76.2286L137.685 73.1111C136.971 72.5328 136.771 73.2993 136.689 73.8339C136.662 74.2659 136.724 75.7194 135.658 76.6023C134.596 77.4816 130.947 75.1756 131.108 72.9181C131.164 72.1371 132.359 71.7936 133.494 71.2467C134.403 70.8092 134.063 70.1986 133.779 69.948L129.76 66.6934C128.597 65.7518 128.479 66.787 128.09 67.7921Z" fill="#9C27B0" fill-opacity="0.3"/>
<path d="M71.215 11.5009C70.519 13.3005 68.3846 17.807 66.927 19.6436C65.4694 21.4802 65.7859 21.1833 64.4248 22.4946C63.0636 23.8059 61.7403 22.3823 61.1615 20.5057C60.5827 18.6291 60.9942 18.007 58.2991 15.8246C56.9714 14.7495 52.8575 14.8372 50.1873 18.3064C46.5635 23.0147 46.9073 27.7682 48.9871 29.3518C51.0669 30.9354 55.9296 28.789 56.6243 30.4579C57.3191 32.1267 53.0298 36.8995 53.0298 36.8995C53.0298 36.8995 51.556 38.4714 47.6601 42.1046C43.7642 45.7378 45.9946 46.84 47.5932 48.1345L50.5465 50.526L54.692 53.883C57.9976 56.5598 57.5673 55.0046 59.3032 49.3206C61.0391 43.6366 66.2373 46.7902 68.1238 48.3178C73.7866 52.9034 71.509 56.0532 70.9018 56.6515C69.8095 57.7279 68.6336 58.2841 66.5919 58.994C65.24 59.464 63.9476 61.3439 65.0152 62.2425C68.1647 64.8935 72.825 68.6674 73.963 69.5889C75.2596 70.6388 77.0386 71.4258 78.752 68.3383C80.7221 64.7881 83.3695 60.1104 84.8454 57.7356C86.0321 55.8263 87.3401 55.1802 88.7913 57.009C89.6042 58.9243 90.5273 61.9354 91.2669 62.9356C92.1936 64.1889 96.6774 64.9919 100.343 60.2292C102.799 57.0387 102.811 50.9649 100.264 49.3039C99.261 48.4921 95.7657 48.759 94.0742 48.7166C92.3827 48.6743 93.4155 46.6581 94.1434 45.6552C96.003 43.2391 99.7515 40.1403 102.943 37.1938C105.536 34.7994 104.405 32.4946 103.484 31.7486L94.2442 24.2667C92.5302 22.8787 92.0493 24.7184 91.8536 26.0013C91.7886 27.0381 91.937 30.5265 89.3786 32.6456C86.8308 34.7557 78.0717 29.2214 78.4594 23.8033C78.5935 21.9291 81.4601 21.1046 84.1857 19.792C86.3662 18.742 85.55 17.2766 84.8694 16.6751L75.2237 8.86415C72.4329 6.60423 72.148 9.08872 71.215 11.5009Z" fill="#9C27B0" fill-opacity="0.3"/>
</svg>
