<svg width="1339" height="381" viewBox="0 0 1339 381" fill="none" xmlns="http://www.w3.org/2000/svg">
<path d="M539.446 301.54C529.046 307.26 517.866 310.12 504.866 310.12C464.046 310.12 430.766 276.84 430.766 236.02C430.766 195.2 464.046 161.92 504.866 161.92C517.086 161.92 529.046 165.04 539.186 170.24L521.766 207.16C516.826 204.3 511.106 202.74 504.866 202.74C486.406 202.74 471.586 217.56 471.586 236.02C471.586 254.48 486.406 269.3 504.866 269.3C511.106 269.3 517.086 267.48 522.026 264.62L539.446 301.54ZM631.807 201.44C630.767 201.44 627.647 201.44 627.647 201.44C611.007 201.44 603.467 210.8 603.467 228.22V307H563.427V224.84C563.427 189.74 585.527 161.92 627.387 161.92C627.387 161.92 630.247 161.92 631.807 161.92V201.44ZM774.332 247.2C774.332 283.08 756.912 310.12 710.892 310.12C671.632 310.12 648.232 283.08 648.232 247.2V164.78H688.272V243.82C688.272 259.16 694.512 270.6 710.892 270.6C726.492 270.6 734.292 259.16 734.292 243.82V164.78H774.332V247.2ZM919.843 307H793.223L850.423 202.22H797.643V164.78H919.323L861.863 269.56H919.843V307ZM1060.51 307H933.887L991.087 202.22H938.307V164.78H1059.99L1002.53 269.56H1060.51V307ZM1124.99 307H1084.95V109.66H1124.99V307ZM1286.87 198.32L1218.23 269.3C1218.23 269.3 1224.47 270.6 1228.11 270.6C1240.85 270.6 1252.81 264.88 1268.15 256.56L1279.59 296.08C1262.69 304.92 1243.71 310.12 1223.17 310.12C1182.35 310.12 1149.07 276.84 1149.07 236.02C1149.07 195.2 1182.35 161.92 1223.17 161.92C1250.21 161.92 1274.13 176.48 1286.87 198.32ZM1235.91 205.86C1226.81 197.54 1210.43 197.8 1198.73 210.02C1185.21 224.06 1184.95 239.66 1192.75 249.28L1235.91 205.86Z" fill="#922EB0"/>
<mask id="path-2-outside-1_828_52690" maskUnits="userSpaceOnUse" x="47" y="20" width="352" height="342" fill="black">
<rect fill="white" x="47" y="20" width="352" height="342"/>
<path fill-rule="evenodd" clip-rule="evenodd" d="M232.874 332.469C234.085 303.643 230.45 287.874 211.103 276.48C178.347 257.19 137.19 281.675 142.119 320.489C142.603 324.303 140.859 328.115 141.629 332.225L96.375 332.225C90.3905 332.225 81.2786 333.304 77.2938 331.003C75.4325 325.555 76.5603 315.993 76.5603 309.242L76.5603 279.413C76.5603 273.989 76.1629 267.706 77.049 263.033C77.9463 261.796 78.7402 261.29 80.9631 261.321C87.7794 264.078 93.4544 267.159 102.246 268.656C131.581 273.649 158.99 245.054 152.148 216.09C150.958 210.695 148.979 205.505 146.278 200.686C139.293 188.906 127.247 183.329 111.052 180.638C99.5167 178.722 89.7042 183.611 83.1645 187.24C81.2407 188.309 78.1031 188.521 77.049 186.505C75.0197 182.626 76.5593 173.163 76.5604 168.169L76.8052 119.27L78.7617 117.558C102.079 117.314 125.401 117.07 148.727 116.825C157.204 112.182 150.371 101.651 148.727 95.0647C147.652 90.1596 147.568 85.0887 148.482 80.151C151.839 64.8292 162.044 54.6717 176.369 50.3224C190.04 46.1721 210.891 52.4642 216.73 59.8576C221.912 66.4194 224.871 74.109 226.514 84.3075C228.691 97.8186 214.757 109.222 226.025 117.069C242.005 116.989 257.987 116.907 273.971 116.825C280.852 116.825 289.475 115.977 295.498 117.314C299.698 123.364 297.212 159.005 297.21 169.881C297.21 175.819 296.472 183.188 298.923 186.751C305.968 196.991 321.185 183.275 335.127 186.017C355.256 189.975 376.455 208.369 368.151 235.649C366.419 241.009 363.679 245.989 360.079 250.319C353.743 258.247 343.631 262.062 330.969 263.767C318.992 265.378 306.647 252.181 299.168 262.299C296.621 265.745 297.209 272.421 297.21 278.435L297.455 314.132C297.455 319.771 298.844 330.036 295.009 331.98C291.321 333.943 281.978 332.469 277.152 332.469L232.875 332.469L232.874 332.469Z"/>
</mask>
<path fill-rule="evenodd" clip-rule="evenodd" d="M232.874 332.469C234.085 303.643 230.45 287.874 211.103 276.48C178.347 257.19 137.19 281.675 142.119 320.489C142.603 324.303 140.859 328.115 141.629 332.225L96.375 332.225C90.3905 332.225 81.2786 333.304 77.2938 331.003C75.4325 325.555 76.5603 315.993 76.5603 309.242L76.5603 279.413C76.5603 273.989 76.1629 267.706 77.049 263.033C77.9463 261.796 78.7402 261.29 80.9631 261.321C87.7794 264.078 93.4544 267.159 102.246 268.656C131.581 273.649 158.99 245.054 152.148 216.09C150.958 210.695 148.979 205.505 146.278 200.686C139.293 188.906 127.247 183.329 111.052 180.638C99.5167 178.722 89.7042 183.611 83.1645 187.24C81.2407 188.309 78.1031 188.521 77.049 186.505C75.0197 182.626 76.5593 173.163 76.5604 168.169L76.8052 119.27L78.7617 117.558C102.079 117.314 125.401 117.07 148.727 116.825C157.204 112.182 150.371 101.651 148.727 95.0647C147.652 90.1596 147.568 85.0887 148.482 80.151C151.839 64.8292 162.044 54.6717 176.369 50.3224C190.04 46.1721 210.891 52.4642 216.73 59.8576C221.912 66.4194 224.871 74.109 226.514 84.3075C228.691 97.8186 214.757 109.222 226.025 117.069C242.005 116.989 257.987 116.907 273.971 116.825C280.852 116.825 289.475 115.977 295.498 117.314C299.698 123.364 297.212 159.005 297.21 169.881C297.21 175.819 296.472 183.188 298.923 186.751C305.968 196.991 321.185 183.275 335.127 186.017C355.256 189.975 376.455 208.369 368.151 235.649C366.419 241.009 363.679 245.989 360.079 250.319C353.743 258.247 343.631 262.062 330.969 263.767C318.992 265.378 306.647 252.181 299.168 262.299C296.621 265.745 297.209 272.421 297.21 278.435L297.455 314.132C297.455 319.771 298.844 330.036 295.009 331.98C291.321 333.943 281.978 332.469 277.152 332.469L232.875 332.469L232.874 332.469Z" stroke="#922EB0" stroke-width="56" stroke-linejoin="round" mask="url(#path-2-outside-1_828_52690)"/>
</svg>
