<svg width="212" height="173" viewBox="0 0 212 173" fill="none" xmlns="http://www.w3.org/2000/svg">
<rect width="212" height="173" rx="23" fill="#E8E8E8"/>
<g clip-path="url(#clip0_1085_52808)">
<path d="M146.201 165.451C144.866 165.45 143.554 165.112 142.385 164.467L33.8213 104.965C31.9672 103.946 30.5922 102.231 29.9978 100.198C29.4033 98.1639 29.6382 95.9769 30.6507 94.1165L76.4652 10.1618C76.9677 9.2408 77.6464 8.42806 78.4624 7.76996C79.2783 7.11185 80.2157 6.62125 81.2208 6.32619C82.226 6.03113 83.2793 5.93737 84.3206 6.05028C85.362 6.16319 86.3709 6.48054 87.2898 6.98423L195.853 66.4868C197.707 67.5057 199.083 69.2201 199.677 71.2539C200.271 73.2876 200.037 75.4746 199.024 77.3351L153.209 161.29C152.709 162.212 152.031 163.027 151.215 163.685C150.399 164.343 149.46 164.833 148.454 165.125C147.722 165.341 146.963 165.451 146.201 165.451ZM143.041 163.265C144.579 164.108 146.387 164.304 148.069 163.81C149.751 163.317 151.169 162.173 152.01 160.632L197.824 76.6776C198.663 75.136 198.858 73.324 198.365 71.6389C197.873 69.9537 196.733 68.5332 195.197 67.6889L86.6338 8.18633C85.096 7.34355 83.2872 7.14748 81.6052 7.64124C79.9232 8.135 78.5058 9.27816 77.6648 10.8192L31.8503 94.774C31.0113 96.3155 30.8168 98.1276 31.3093 99.8127C31.8018 101.498 32.9412 102.918 34.4774 103.763L143.041 163.265Z" fill="#F2F2F2"/>
<path d="M148.439 136.088C147.19 136.088 145.961 135.772 144.866 135.171L57.0951 87.0651C56.2412 86.598 55.4875 85.9669 54.8772 85.2076C54.2669 84.4483 53.812 83.5759 53.5386 82.6403C53.2651 81.7047 53.1784 80.7241 53.2835 79.7549C53.3886 78.7856 53.6834 77.8467 54.151 76.9917L81.5128 26.8513C81.9794 25.9961 82.6095 25.2414 83.3672 24.6302C84.1249 24.0191 84.9953 23.5635 85.9287 23.2895C86.8621 23.0155 87.8402 22.9284 88.8071 23.0333C89.7741 23.1382 90.711 23.4329 91.5642 23.9007L179.335 72.0068C180.188 72.4744 180.941 73.106 181.551 73.8653C182.161 74.6246 182.615 75.4969 182.889 76.4323C183.162 77.3677 183.249 78.348 183.144 79.317C183.04 80.2861 182.746 81.225 182.279 82.0801L154.917 132.221C154.284 133.39 153.349 134.366 152.209 135.047C151.069 135.728 149.766 136.087 148.439 136.088Z" fill="#F2F2F2"/>
<path d="M145.715 165.429H21.9764C20.0129 165.427 18.1304 164.644 16.742 163.252C15.3535 161.861 14.5725 159.974 14.5703 158.007V62.3168C14.5725 60.349 15.3535 58.4624 16.742 57.0709C18.1304 55.6795 20.0129 54.8968 21.9764 54.8945H145.715C147.678 54.8968 149.561 55.6795 150.949 57.0709C152.338 58.4624 153.119 60.349 153.121 62.3168V158.007C153.119 159.974 152.338 161.861 150.949 163.252C149.561 164.644 147.678 165.427 145.715 165.429Z" fill="white"/>
<path d="M145.714 166H21.9758C19.8612 165.998 17.8339 165.155 16.3387 163.657C14.8434 162.158 14.0024 160.126 14 158.007V62.3174C14.0024 60.1982 14.8434 58.1665 16.3387 56.668C17.8339 55.1695 19.8612 54.3266 21.9758 54.3242H145.714C147.829 54.3266 149.856 55.1695 151.351 56.668C152.846 58.1665 153.688 60.1982 153.69 62.3174V158.007C153.688 160.126 152.846 162.158 151.351 163.657C149.856 165.155 147.829 165.998 145.714 166ZM21.9758 55.6945C20.2237 55.6965 18.5439 56.3949 17.305 57.6365C16.0661 58.8781 15.3692 60.5615 15.3673 62.3174V158.007C15.3692 159.763 16.0661 161.447 17.305 162.688C18.5439 163.93 20.2237 164.628 21.9758 164.63H145.714C147.466 164.628 149.146 163.93 150.385 162.688C151.624 161.447 152.321 159.763 152.323 158.007V62.3174C152.321 60.5615 151.624 58.8781 150.385 57.6365C149.146 56.3949 147.466 55.6965 145.714 55.6945H21.9758Z" fill="#E6E6E6"/>
<path d="M103.102 86.3623C101.664 86.3612 100.246 86.6945 98.9592 87.336C97.672 87.9774 96.551 88.9095 95.6843 90.0588C94.754 89.6576 93.7388 89.4942 92.73 89.5832C91.7211 89.6723 90.7501 90.011 89.9041 90.569C89.0581 91.1271 88.3636 91.8869 87.883 92.7803C87.4024 93.6737 87.1506 94.6727 87.1504 95.6877H112.407C112.407 94.4631 112.166 93.2505 111.699 92.119C111.231 90.9876 110.546 89.9596 109.682 89.0937C108.818 88.2277 107.792 87.5408 106.663 87.0722C105.534 86.6035 104.324 86.3623 103.102 86.3623Z" fill="#E6E6E6"/>
<path d="M47.7718 122.864C56.0476 122.864 62.7565 116.14 62.7565 107.847C62.7565 99.5526 56.0476 92.8291 47.7718 92.8291C39.496 92.8291 32.7871 99.5526 32.7871 107.847C32.7871 116.14 39.496 122.864 47.7718 122.864Z" fill="#9C27B0"/>
<path d="M135.542 138.796C134.992 138.926 134.429 138.991 133.865 138.99H33.8257C32.5937 138.992 31.3813 138.68 30.3027 138.083L30.5693 137.7L41.7308 121.592L58.2703 97.7293L58.5119 97.3799L61.1142 93.6254C61.2891 93.3727 61.5225 93.1663 61.7943 93.0237C62.0662 92.8811 62.3684 92.8066 62.6752 92.8066C62.9821 92.8066 63.2843 92.8811 63.5562 93.0237C63.828 93.1663 64.0613 93.3727 64.2362 93.6254L72.8819 106.097V106.099L77.9682 113.439L90.1096 130.956L108.524 104.613C108.7 104.361 108.933 104.156 109.204 104.015C109.476 103.873 109.777 103.799 110.083 103.799C110.389 103.799 110.691 103.873 110.962 104.015C111.233 104.156 111.466 104.361 111.642 104.613L123.455 121.51L124.134 122.481L135.542 138.796Z" fill="#3F3D56"/>
<path d="M83.2137 101.934C81.4402 101.932 79.6906 102.343 78.1025 103.135C76.5145 103.926 75.1313 105.076 74.062 106.494C72.9143 105.999 71.6618 105.798 70.4171 105.907C69.1724 106.017 67.9744 106.435 66.9306 107.124C65.8869 107.812 65.0301 108.75 64.4371 109.852C63.8441 110.954 63.5335 112.187 63.5332 113.439H94.6941C94.6941 111.928 94.3971 110.432 93.8202 109.036C93.2433 107.64 92.3976 106.372 91.3316 105.303C90.2655 104.235 88.9999 103.388 87.6071 102.809C86.2142 102.231 84.7214 101.934 83.2137 101.934Z" fill="#CCCCCC"/>
<path d="M133.864 139.218H33.8247C32.8369 139.219 31.8586 139.024 30.9459 138.646C30.0331 138.268 29.2037 137.713 28.5052 137.013C27.8068 136.313 27.2529 135.481 26.8753 134.567C26.4977 133.652 26.3038 132.671 26.3047 131.681V74.5325C26.3069 72.5344 27.1 70.6188 28.5097 69.206C29.9195 67.7931 31.831 66.9984 33.8247 66.9961H133.864C135.857 66.9984 137.769 67.7931 139.179 69.206C140.588 70.6188 141.381 72.5344 141.384 74.5325V131.681C141.385 132.671 141.191 133.652 140.814 134.567C140.436 135.482 139.882 136.313 139.184 137.013C138.485 137.713 137.656 138.268 136.743 138.647C135.83 139.025 134.851 139.219 133.864 139.218ZM33.8247 67.4528C31.9518 67.455 30.1562 68.2016 28.8319 69.5288C27.5075 70.856 26.7626 72.6555 26.7604 74.5325V131.681C26.7596 132.611 26.9417 133.532 27.2964 134.392C27.6511 135.251 28.1714 136.032 28.8276 136.689C29.4837 137.347 30.2628 137.869 31.1203 138.224C31.9778 138.579 32.8968 138.762 33.8247 138.761H133.864C134.792 138.762 135.711 138.58 136.568 138.224C137.426 137.869 138.205 137.348 138.861 136.69C139.517 136.032 140.038 135.251 140.392 134.392C140.747 133.533 140.929 132.611 140.928 131.681V74.5325C140.926 72.6555 140.181 70.856 138.856 69.5288C137.532 68.2016 135.737 67.455 133.864 67.4528H33.8247Z" fill="#3F3D56"/>
</g>
<defs>
<clipPath id="clip0_1085_52808">
<rect width="186" height="160" fill="white" transform="translate(14 6)"/>
</clipPath>
</defs>
</svg>
