<svg width="157" height="141" viewBox="0 0 157 141" fill="none" xmlns="http://www.w3.org/2000/svg">
<g clip-path="url(#clip0_1124_53308)">
<path d="M80.4052 0.307836L75.2967 1.62609L12.3589 17.8673L7.25038 19.1855C4.77077 19.8284 2.64725 21.4292 1.34568 23.6368C0.0441112 25.8444 -0.329202 28.4785 0.30764 30.9612L22.4592 116.917C23.1017 119.398 24.7014 121.523 26.9076 122.826C29.1137 124.128 31.7461 124.502 34.2271 123.864L34.2403 123.861L107.369 104.99L107.382 104.987C109.862 104.344 111.985 102.743 113.287 100.535C114.588 98.3279 114.961 95.6938 114.325 93.2111L92.173 7.25523C91.5306 4.77397 89.9309 2.64902 87.7247 1.34658C85.5186 0.0441452 82.8862 -0.329424 80.4052 0.307836Z" fill="#F2F2F2"/>
<path d="M81.0995 3.00255L75.0488 4.56393L13.9952 20.3189L7.94459 21.8802C6.1788 22.338 4.66658 23.478 3.7397 25.0501C2.81281 26.6222 2.54696 28.498 3.00047 30.266L25.1521 116.222C25.6096 117.989 26.7488 119.502 28.3198 120.43C29.8909 121.357 31.7654 121.623 33.5322 121.169L33.5454 121.166L106.674 102.295L106.687 102.292C108.453 101.834 109.965 100.694 110.892 99.1217C111.819 97.5496 112.085 95.6738 111.631 93.9058L89.4795 7.94995C89.0221 6.18301 87.8829 4.6698 86.3118 3.7423C84.7408 2.8148 82.8663 2.54876 81.0995 3.00255Z" fill="white"/>
<path d="M76.5309 30.8375L39.537 40.3838C39.1238 40.4904 38.6852 40.4284 38.3177 40.2115C37.9502 39.9945 37.6839 39.6403 37.5773 39.2269C37.4708 38.8134 37.5327 38.3745 37.7496 38.0068C37.9664 37.639 38.3203 37.3725 38.7335 37.2659L75.7274 27.7196C76.1404 27.6134 76.5787 27.6756 76.9459 27.8926C77.3131 28.1097 77.5792 28.4637 77.6857 28.8769C77.7922 29.2901 77.7303 29.7287 77.5138 30.0964C77.2973 30.464 76.9437 30.7306 76.5309 30.8375Z" fill="#F2F2F2"/>
<path d="M84.3128 34.4404L40.8925 45.645C40.4793 45.7517 40.0407 45.6897 39.6732 45.4727C39.3057 45.2557 39.0394 44.9016 38.9328 44.4881C38.8263 44.0746 38.8882 43.6358 39.105 43.268C39.3218 42.9003 39.6758 42.6338 40.089 42.5271L83.5092 31.3225C83.9224 31.2159 84.361 31.2779 84.7285 31.4948C85.096 31.7118 85.3624 32.066 85.4689 32.4794C85.5755 32.8929 85.5135 33.3318 85.2967 33.6995C85.0799 34.0673 84.7259 34.3338 84.3128 34.4404Z" fill="#F2F2F2"/>
<path d="M82.6071 54.416L45.6132 63.9623C45.4086 64.0151 45.1956 64.027 44.9864 63.9975C44.7772 63.9679 44.5759 63.8974 44.3939 63.7899C44.2119 63.6825 44.0529 63.5403 43.9258 63.3713C43.7988 63.2024 43.7063 63.0101 43.6535 62.8054C43.6007 62.6006 43.5888 62.3875 43.6184 62.1782C43.6479 61.9688 43.7184 61.7674 43.8257 61.5853C43.9331 61.4032 44.0752 61.244 44.2441 61.1169C44.4129 60.9898 44.6051 60.8972 44.8097 60.8444L81.8035 51.2981C82.0081 51.2453 82.2211 51.2333 82.4303 51.2629C82.6395 51.2925 82.8409 51.363 83.0228 51.4704C83.2048 51.5778 83.3638 51.7201 83.4909 51.889C83.6179 52.058 83.7105 52.2503 83.7632 52.455C83.816 52.6597 83.8279 52.8728 83.7984 53.0822C83.7688 53.2915 83.6984 53.493 83.591 53.6751C83.4836 53.8572 83.3415 54.0163 83.1727 54.1435C83.0038 54.2706 82.8116 54.3632 82.6071 54.416Z" fill="#F2F2F2"/>
<path d="M90.3899 58.0195L46.9696 69.2241C46.765 69.2769 46.552 69.2889 46.3428 69.2593C46.1336 69.2297 45.9323 69.1592 45.7503 69.0518C45.5684 68.9444 45.4093 68.8021 45.2823 68.6332C45.1552 68.4643 45.0627 68.2719 45.01 68.0672C44.9572 67.8625 44.9452 67.6494 44.9748 67.44C45.0043 67.2307 45.0748 67.0292 45.1822 66.8471C45.2895 66.665 45.4317 66.5059 45.6005 66.3788C45.7693 66.2516 45.9615 66.159 46.1661 66.1062L89.5864 54.9016C89.9996 54.795 90.4382 54.857 90.8057 55.0739C91.1732 55.2909 91.4395 55.6451 91.546 56.0585C91.6526 56.472 91.5907 56.9109 91.3738 57.2786C91.157 57.6464 90.8031 57.9129 90.3899 58.0195Z" fill="#F2F2F2"/>
<path d="M88.6841 77.9951L51.6902 87.5414C51.2772 87.6477 50.8388 87.5855 50.4715 87.3685C50.1043 87.1515 49.8381 86.7975 49.7316 86.3842C49.6251 85.9709 49.687 85.5322 49.9036 85.1646C50.1202 84.7969 50.4738 84.5304 50.8867 84.4235L87.8806 74.8772C88.2938 74.7706 88.7324 74.8325 89.0999 75.0495C89.4674 75.2665 89.7337 75.6206 89.8403 76.0341C89.9468 76.4476 89.8849 76.8864 89.668 77.2542C89.4512 77.6219 89.0973 77.8884 88.6841 77.9951Z" fill="#F2F2F2"/>
<path d="M96.4655 81.5986L53.0452 92.8032C52.8406 92.8562 52.6275 92.8684 52.4181 92.8389C52.2088 92.8095 52.0073 92.739 51.8252 92.6316C51.6431 92.5242 51.4839 92.3819 51.3567 92.2129C51.2296 92.0439 51.137 91.8515 51.0842 91.6467C51.0314 91.4418 51.0195 91.2286 51.0491 91.0191C51.0787 90.8097 51.1493 90.6081 51.2568 90.426C51.3643 90.2438 51.5066 90.0846 51.6756 89.9576C51.8446 89.8305 52.037 89.738 52.2417 89.6853L95.662 78.4807C96.0752 78.3741 96.5138 78.4361 96.8813 78.653C97.2488 78.87 97.5151 79.2242 97.6217 79.6376C97.7282 80.0511 97.6663 80.49 97.4494 80.8577C97.2326 81.2255 96.8787 81.492 96.4655 81.5986Z" fill="#F2F2F2"/>
<path d="M33.2211 50.1718L20.1293 53.5501C19.9312 53.601 19.721 53.5712 19.5448 53.4672C19.3687 53.3632 19.2409 53.1935 19.1896 52.9954L16.1844 41.3341C16.1336 41.1359 16.1634 40.9255 16.2673 40.7493C16.3712 40.573 16.5408 40.4452 16.7388 40.3938L29.8306 37.0155C30.0287 36.9646 30.2389 36.9944 30.415 37.0984C30.5912 37.2024 30.7189 37.3721 30.7702 37.5702L33.7754 49.2315C33.8263 49.4297 33.7965 49.6401 33.6926 49.8163C33.5886 49.9926 33.4191 50.1204 33.2211 50.1718Z" fill="#E6E6E6"/>
<path d="M39.2982 73.7509L26.2064 77.1292C26.0083 77.1801 25.7981 77.1503 25.622 77.0463C25.4458 76.9423 25.3181 76.7726 25.2668 76.5745L22.2616 64.9132C22.2107 64.715 22.2405 64.5046 22.3444 64.3284C22.4484 64.1521 22.6179 64.0243 22.8159 63.9729L35.9077 60.5946C36.1058 60.5437 36.316 60.5735 36.4922 60.6775C36.6683 60.7815 36.7961 60.9512 36.8474 61.1493L39.8526 72.8106C39.9034 73.0088 39.8736 73.2192 39.7697 73.3954C39.6658 73.5717 39.4962 73.6995 39.2982 73.7509Z" fill="#E6E6E6"/>
<path d="M45.3744 97.33L32.2826 100.708C32.0845 100.759 31.8743 100.729 31.6981 100.625C31.522 100.521 31.3942 100.352 31.3429 100.154L28.3377 88.4923C28.2869 88.2941 28.3167 88.0838 28.4206 87.9075C28.5245 87.7312 28.6941 87.6034 28.8921 87.552L41.9839 84.1737C42.182 84.1228 42.3922 84.1526 42.5684 84.2566C42.7445 84.3606 42.8723 84.5303 42.9236 84.7284L45.9288 96.3897C45.9796 96.5879 45.9498 96.7983 45.8459 96.9745C45.742 97.1508 45.5724 97.2786 45.3744 97.33Z" fill="#E6E6E6"/>
<path d="M131.426 22.0957H55.8782C53.3167 22.0986 50.861 23.1181 49.0497 24.9305C47.2385 26.743 46.2197 29.2003 46.2168 31.7635V120.532C46.2197 123.095 47.2385 125.552 49.0497 127.364C50.861 129.177 53.3167 130.196 55.8782 130.199H131.426C133.988 130.196 136.443 129.177 138.255 127.364C140.066 125.552 141.085 123.095 141.088 120.532V31.7635C141.085 29.2003 140.066 26.743 138.255 24.9305C136.443 23.1181 133.988 22.0986 131.426 22.0957Z" fill="#E6E6E6"/>
<path d="M131.426 24.8789H55.8782C54.0541 24.881 52.3053 25.607 51.0154 26.8976C49.7256 28.1883 49.0001 29.9383 48.998 31.7636V120.532C49.0001 122.357 49.7256 124.107 51.0154 125.397C52.3053 126.688 54.0541 127.414 55.8782 127.416H131.426C133.25 127.414 134.999 126.688 136.289 125.397C137.579 124.107 138.304 122.357 138.306 120.532V31.7636C138.304 29.9383 137.579 28.1883 136.289 26.8977C134.999 25.607 133.25 24.881 131.426 24.8789Z" fill="white"/>
<path d="M139.363 141C149.103 141 157 133.099 157 123.352C157 113.605 149.103 105.704 139.363 105.704C129.623 105.704 121.727 113.605 121.727 123.352C121.727 133.099 129.623 141 139.363 141Z" fill="#9C27B0"/>
<path d="M147.798 121.05H141.664V114.911C141.664 114.301 141.421 113.715 140.99 113.284C140.558 112.852 139.973 112.609 139.363 112.609C138.753 112.609 138.168 112.852 137.737 113.284C137.305 113.715 137.063 114.301 137.063 114.911V121.05H130.928C130.318 121.05 129.733 121.292 129.302 121.724C128.87 122.156 128.628 122.741 128.628 123.352C128.628 123.962 128.87 124.548 129.302 124.979C129.733 125.411 130.318 125.654 130.928 125.654H137.063V131.792C137.063 132.403 137.305 132.988 137.737 133.42C138.168 133.852 138.753 134.094 139.363 134.094C139.973 134.094 140.558 133.852 140.99 133.42C141.421 132.988 141.664 132.403 141.664 131.792V125.654H147.798C148.408 125.654 148.993 125.411 149.425 124.979C149.856 124.548 150.098 123.962 150.098 123.352C150.098 122.741 149.856 122.156 149.425 121.724C148.993 121.292 148.408 121.05 147.798 121.05Z" fill="white"/>
<path d="M120.057 73.6574H81.8529C81.6414 73.6576 81.432 73.6162 81.2366 73.5354C81.0412 73.4546 80.8636 73.336 80.7141 73.1865C80.5645 73.037 80.4458 72.8594 80.3648 72.664C80.2839 72.4685 80.2422 72.259 80.2422 72.0474C80.2422 71.8359 80.2839 71.6264 80.3648 71.4309C80.4458 71.2355 80.5645 71.0579 80.7141 70.9084C80.8636 70.7589 81.0412 70.6403 81.2366 70.5595C81.432 70.4787 81.6414 70.4373 81.8529 70.4375H120.057C120.483 70.438 120.892 70.6078 121.194 70.9097C121.495 71.2115 121.664 71.6208 121.664 72.0474C121.664 72.4741 121.495 72.8833 121.194 73.1852C120.892 73.4871 120.483 73.6569 120.057 73.6574Z" fill="#E6E6E6"/>
<path d="M126.694 79.091H81.8529C81.6414 79.0912 81.432 79.0498 81.2366 78.969C81.0412 78.8882 80.8636 78.7696 80.7141 78.6201C80.5645 78.4706 80.4458 78.293 80.3648 78.0976C80.2839 77.9021 80.2422 77.6926 80.2422 77.481C80.2422 77.2695 80.2839 77.06 80.3648 76.8645C80.4458 76.6691 80.5645 76.4915 80.7141 76.342C80.8636 76.1925 81.0412 76.0739 81.2366 75.9931C81.432 75.9123 81.6414 75.8709 81.8529 75.8711H126.694C127.12 75.8711 127.53 76.0407 127.831 76.3426C128.133 76.6446 128.303 77.0541 128.303 77.481C128.303 77.908 128.133 78.3175 127.831 78.6194C127.53 78.9214 127.12 79.091 126.694 79.091Z" fill="#E6E6E6"/>
<path d="M120.057 98.008H81.8529C81.6414 98.0082 81.432 97.9668 81.2366 97.886C81.0412 97.8052 80.8636 97.6866 80.7141 97.5371C80.5645 97.3876 80.4458 97.21 80.3648 97.0146C80.2839 96.8191 80.2422 96.6096 80.2422 96.398C80.2422 96.1865 80.2839 95.977 80.3648 95.7815C80.4458 95.5861 80.5645 95.4085 80.7141 95.259C80.8636 95.1095 81.0412 94.9909 81.2366 94.9101C81.432 94.8293 81.6414 94.7879 81.8529 94.7881H120.057C120.484 94.7881 120.893 94.9577 121.195 95.2596C121.496 95.5616 121.666 95.971 121.666 96.398C121.666 96.825 121.496 97.2345 121.195 97.5364C120.893 97.8384 120.484 98.008 120.057 98.008Z" fill="#E6E6E6"/>
<path d="M126.694 103.442H81.8529C81.6414 103.442 81.432 103.4 81.2366 103.32C81.0412 103.239 80.8636 103.12 80.7141 102.971C80.5645 102.821 80.4458 102.644 80.3648 102.448C80.2839 102.253 80.2422 102.043 80.2422 101.832C80.2422 101.62 80.2839 101.411 80.3648 101.215C80.4458 101.02 80.5645 100.842 80.7141 100.693C80.8636 100.543 81.0412 100.425 81.2366 100.344C81.432 100.263 81.6414 100.221 81.8529 100.222H126.694C126.905 100.221 127.115 100.263 127.31 100.344C127.505 100.425 127.683 100.543 127.832 100.693C127.982 100.842 128.101 101.02 128.182 101.215C128.263 101.411 128.304 101.62 128.304 101.832C128.304 102.043 128.263 102.253 128.182 102.448C128.101 102.644 127.982 102.821 127.832 102.971C127.683 103.12 127.505 103.239 127.31 103.32C127.115 103.4 126.905 103.442 126.694 103.442Z" fill="#E6E6E6"/>
<path d="M73.2945 81.5574H59.7744C59.5699 81.5572 59.3738 81.4758 59.2291 81.331C59.0845 81.1863 59.0032 80.9901 59.0029 80.7854V68.7427C59.0032 68.538 59.0845 68.3418 59.2291 68.1971C59.3738 68.0523 59.5699 67.9709 59.7744 67.9707H73.2945C73.499 67.9709 73.6951 68.0523 73.8397 68.1971C73.9844 68.3418 74.0657 68.538 74.0659 68.7427V80.7854C74.0657 80.9901 73.9844 81.1863 73.8397 81.331C73.6951 81.4758 73.499 81.5572 73.2945 81.5574Z" fill="#E6E6E6"/>
<path d="M73.2945 105.908H59.7744C59.5699 105.908 59.3738 105.826 59.2291 105.682C59.0845 105.537 59.0032 105.341 59.0029 105.136V93.0933C59.0032 92.8886 59.0845 92.6924 59.2291 92.5476C59.3738 92.4029 59.5699 92.3215 59.7744 92.3213H73.2945C73.499 92.3215 73.6951 92.4029 73.8397 92.5476C73.9844 92.6924 74.0657 92.8886 74.0659 93.0933V105.136C74.0657 105.341 73.9844 105.537 73.8397 105.682C73.6951 105.826 73.499 105.908 73.2945 105.908Z" fill="#E6E6E6"/>
<path d="M120.099 46.55H91.9321C91.5054 46.55 91.0962 46.3804 90.7945 46.0784C90.4928 45.7765 90.3232 45.367 90.3232 44.94C90.3232 44.513 90.4928 44.1035 90.7945 43.8016C91.0962 43.4997 91.5054 43.3301 91.9321 43.3301H120.099C120.525 43.3301 120.934 43.4997 121.236 43.8016C121.538 44.1035 121.707 44.513 121.707 44.94C121.707 45.367 121.538 45.7765 121.236 46.0784C120.934 46.3804 120.525 46.55 120.099 46.55Z" fill="#CCCCCC"/>
<path d="M126.735 51.9836H91.9321C91.7208 51.9836 91.5116 51.9419 91.3164 51.861C91.1212 51.7801 90.9439 51.6615 90.7945 51.512C90.6451 51.3625 90.5266 51.185 90.4457 50.9897C90.3649 50.7944 90.3232 50.585 90.3232 50.3736C90.3232 50.1622 90.3649 49.9528 90.4457 49.7575C90.5266 49.5622 90.6451 49.3847 90.7945 49.2352C90.9439 49.0857 91.1212 48.9671 91.3164 48.8862C91.5116 48.8053 91.7208 48.7637 91.9321 48.7637H126.735C127.162 48.7637 127.571 48.9333 127.873 49.2352C128.175 49.5371 128.344 49.9466 128.344 50.3736C128.344 50.8006 128.175 51.2101 127.873 51.512C127.571 51.8139 127.162 51.9836 126.735 51.9836Z" fill="#CCCCCC"/>
<path d="M85.6994 58.5683H59.7324C59.5279 58.568 59.3318 58.4866 59.1871 58.3419C59.0425 58.1972 58.9612 58.001 58.9609 57.7963V37.5171C58.9612 37.3124 59.0425 37.1162 59.1871 36.9715C59.3318 36.8267 59.5279 36.7453 59.7324 36.7451H85.6994C85.9039 36.7453 86.1 36.8267 86.2446 36.9715C86.3892 37.1162 86.4706 37.3124 86.4708 37.5171V57.7963C86.4706 58.001 86.3892 58.1972 86.2446 58.3419C86.1 58.4866 85.9039 58.568 85.6994 58.5683Z" fill="#9C27B0"/>
</g>
<defs>
<clipPath id="clip0_1124_53308">
<rect width="157" height="141" fill="white"/>
</clipPath>
</defs>
</svg>
